<svg width="638" height="783" viewBox="0 0 638 783" fill="none" xmlns="http://www.w3.org/2000/svg">
<rect width="632" height="780" transform="translate(3 1)" fill="white"/>
<g filter="url(#filter0_d_15115_13146)">
<rect width="632" height="56" transform="translate(3 1)" fill="white"/>
<rect width="632" height="56" transform="translate(3 1)" fill="white"/>
<path fill-rule="evenodd" clip-rule="evenodd" d="M36.2016 17.8325L33.7026 15.2002L20.6016 29.0002L33.7026 42.8002L36.2016 40.1679L27.3083 30.8002H49.4016V27.2002H27.3083L36.2016 17.8325Z" fill="white"/>
<g clip-path="url(#clip0_15115_13146)">
<mask id="mask0_15115_13146" style="mask-type:alpha" maskUnits="userSpaceOnUse" x="211" y="21" width="80" height="17">
<path d="M230.248 24.8437C231.475 24.8437 232.447 25.2746 233.165 26.1363C233.883 26.998 234.242 28.0808 234.242 29.3844C234.242 30.6881 233.883 31.7707 233.165 32.6324C232.447 33.4941 231.475 33.925 230.248 33.925C229.674 33.925 229.163 33.8173 228.716 33.6018C228.268 33.3865 227.923 33.1187 227.68 32.7981V37.1731H225.327V25.0425H227.498V26.1032C228.072 25.2637 228.989 24.8437 230.248 24.8437ZM243.008 24.8437C244.268 24.8437 245.185 25.2637 245.759 26.1032V25.0425H247.93V33.7262H245.759V32.6656C245.185 33.5053 244.268 33.925 243.008 33.925C241.782 33.925 240.81 33.4941 240.092 32.6324C239.374 31.7707 239.015 30.6881 239.015 29.3844C239.015 28.0808 239.374 26.998 240.092 26.1363C240.81 25.2746 241.782 24.8437 243.008 24.8437ZM261.304 24.8437C262.563 24.8437 263.48 25.2637 264.054 26.1032V25.0425H266.225V33.7262H264.054V32.6656C263.48 33.5053 262.563 33.925 261.304 33.925C260.077 33.925 259.105 33.4941 258.387 32.6324C257.669 31.7707 257.31 30.6881 257.31 29.3844C257.31 28.0808 257.669 26.998 258.387 26.1363C259.105 25.2746 260.077 24.8437 261.304 24.8437ZM286.691 24.8437C287.962 24.8437 288.997 25.272 289.799 26.128C290.599 26.9843 291 28.0643 291 29.3678L290.967 30.0638H284.67C284.747 30.6604 284.968 31.1161 285.332 31.4309C285.697 31.7458 286.178 31.9033 286.774 31.9033C287.15 31.9033 287.489 31.8232 287.793 31.6629C288.097 31.5029 288.315 31.2681 288.448 30.9587H290.818C290.563 31.8427 290.064 32.5579 289.318 33.1047C288.572 33.6516 287.702 33.925 286.708 33.925C285.426 33.925 284.377 33.4999 283.559 32.649C282.742 31.7984 282.333 30.7046 282.333 29.3678C282.333 28.0752 282.742 26.998 283.559 26.1363C284.377 25.2746 285.421 24.8437 286.691 24.8437ZM220.933 21.6665L224.164 33.7261H221.588L220.876 30.948H216.119L215.407 33.7261H212.831L213.576 30.948H211L211.545 28.9144H220.355L218.498 21.6665H220.933ZM237.805 21.6665V33.7262H235.452V21.6665H237.805ZM278.058 24.8437C279.074 24.8437 279.853 25.1585 280.394 25.7883C280.935 26.418 281.206 27.2577 281.206 28.3072V33.7261H278.853V28.5723C278.853 27.4346 278.389 26.8654 277.461 26.8654C276.908 26.8654 276.489 27.034 276.202 27.3709C275.914 27.708 275.771 28.1803 275.771 28.7878V33.7261H273.417V28.5723C273.417 27.4346 272.953 26.8654 272.026 26.8654C271.484 26.8654 271.067 27.0311 270.774 27.3626C270.481 27.694 270.335 28.1526 270.335 28.7381V33.7261H267.982V25.0425H270.153V26.1031C270.606 25.2637 271.44 24.8437 272.655 24.8437C273.804 24.8437 274.644 25.2526 275.174 26.0699C275.914 25.2526 276.875 24.8437 278.058 24.8437ZM256.731 25.0425V26.9674L252.36 31.6878H256.784V33.7261H249.441V31.7903L253.78 27.0809H249.505V25.0425H256.731ZM229.751 26.9151C229.11 26.9151 228.594 27.1471 228.202 27.6112C227.81 28.0752 227.614 28.6663 227.614 29.3844C227.614 30.1026 227.81 30.6935 228.202 31.1575C228.594 31.6216 229.11 31.8535 229.751 31.8535C230.392 31.8535 230.909 31.6216 231.301 31.1575C231.693 30.6935 231.889 30.1026 231.889 29.3844C231.889 28.6663 231.693 28.0752 231.301 27.6112C230.909 27.1471 230.392 26.9151 229.751 26.9151ZM243.506 26.9151C242.865 26.9151 242.348 27.1471 241.956 27.6112C241.564 28.0752 241.368 28.6663 241.368 29.3844C241.368 30.1026 241.564 30.6935 241.956 31.1575C242.348 31.6216 242.865 31.8535 243.506 31.8535C244.146 31.8535 244.663 31.6216 245.055 31.1575C245.447 30.6935 245.643 30.1026 245.643 29.3844C245.643 28.6663 245.447 28.0752 245.055 27.6112C244.663 27.1471 244.146 26.9151 243.506 26.9151ZM261.801 26.9151C261.16 26.9151 260.643 27.1471 260.251 27.6112C259.859 28.0752 259.663 28.6663 259.663 29.3844C259.663 30.1026 259.859 30.6935 260.251 31.1575C260.643 31.6216 261.16 31.8535 261.801 31.8535C262.441 31.8535 262.958 31.6216 263.35 31.1575C263.742 30.6935 263.939 30.1026 263.939 29.3844C263.939 28.6663 263.742 28.0752 263.35 27.6112C262.958 27.1471 262.441 26.9151 261.801 26.9151ZM286.675 26.7328C286.144 26.7328 285.708 26.8794 285.366 27.172C285.023 27.4649 284.802 27.8655 284.703 28.3734H288.647C288.558 27.8763 288.343 27.4786 288.001 27.1803C287.658 26.882 287.216 26.7328 286.675 26.7328ZM218.497 21.6665L216.875 27.9981H214.366L216.063 21.6665H218.497Z" fill="white"/>
</mask>
<g mask="url(#mask0_15115_13146)">
<path d="M230.248 24.8437C231.475 24.8437 232.447 25.2746 233.165 26.1363C233.883 26.998 234.242 28.0808 234.242 29.3844C234.242 30.6881 233.883 31.7707 233.165 32.6324C232.447 33.4941 231.475 33.925 230.248 33.925C229.674 33.925 229.163 33.8173 228.716 33.6018C228.268 33.3865 227.923 33.1187 227.68 32.7981V37.1731H225.327V25.0425H227.498V26.1032C228.072 25.2637 228.989 24.8437 230.248 24.8437ZM243.008 24.8437C244.268 24.8437 245.185 25.2637 245.759 26.1032V25.0425H247.93V33.7262H245.759V32.6656C245.185 33.5053 244.268 33.925 243.008 33.925C241.782 33.925 240.81 33.4941 240.092 32.6324C239.374 31.7707 239.015 30.6881 239.015 29.3844C239.015 28.0808 239.374 26.998 240.092 26.1363C240.81 25.2746 241.782 24.8437 243.008 24.8437ZM261.304 24.8437C262.563 24.8437 263.48 25.2637 264.054 26.1032V25.0425H266.225V33.7262H264.054V32.6656C263.48 33.5053 262.563 33.925 261.304 33.925C260.077 33.925 259.105 33.4941 258.387 32.6324C257.669 31.7707 257.31 30.6881 257.31 29.3844C257.31 28.0808 257.669 26.998 258.387 26.1363C259.105 25.2746 260.077 24.8437 261.304 24.8437ZM286.691 24.8437C287.962 24.8437 288.997 25.272 289.799 26.128C290.599 26.9843 291 28.0643 291 29.3678L290.967 30.0638H284.67C284.747 30.6604 284.968 31.1161 285.332 31.4309C285.697 31.7458 286.178 31.9033 286.774 31.9033C287.15 31.9033 287.489 31.8232 287.793 31.6629C288.097 31.5029 288.315 31.2681 288.448 30.9587H290.818C290.563 31.8427 290.064 32.5579 289.318 33.1047C288.572 33.6516 287.702 33.925 286.708 33.925C285.426 33.925 284.377 33.4999 283.559 32.649C282.742 31.7984 282.333 30.7046 282.333 29.3678C282.333 28.0752 282.742 26.998 283.559 26.1363C284.377 25.2746 285.421 24.8437 286.691 24.8437ZM220.933 21.6665L224.164 33.7261H221.588L220.876 30.948H216.119L215.407 33.7261H212.831L213.576 30.948H211L211.545 28.9144H220.355L218.498 21.6665H220.933ZM237.805 21.6665V33.7262H235.452V21.6665H237.805ZM278.058 24.8437C279.074 24.8437 279.853 25.1585 280.394 25.7883C280.935 26.418 281.206 27.2577 281.206 28.3072V33.7261H278.853V28.5723C278.853 27.4346 278.389 26.8654 277.461 26.8654C276.908 26.8654 276.489 27.034 276.202 27.3709C275.914 27.708 275.771 28.1803 275.771 28.7878V33.7261H273.417V28.5723C273.417 27.4346 272.953 26.8654 272.026 26.8654C271.484 26.8654 271.067 27.0311 270.774 27.3626C270.481 27.694 270.335 28.1526 270.335 28.7381V33.7261H267.982V25.0425H270.153V26.1031C270.606 25.2637 271.44 24.8437 272.655 24.8437C273.804 24.8437 274.644 25.2526 275.174 26.0699C275.914 25.2526 276.875 24.8437 278.058 24.8437ZM256.731 25.0425V26.9674L252.36 31.6878H256.784V33.7261H249.441V31.7903L253.78 27.0809H249.505V25.0425H256.731ZM229.751 26.9151C229.11 26.9151 228.594 27.1471 228.202 27.6112C227.81 28.0752 227.614 28.6663 227.614 29.3844C227.614 30.1026 227.81 30.6935 228.202 31.1575C228.594 31.6216 229.11 31.8535 229.751 31.8535C230.392 31.8535 230.909 31.6216 231.301 31.1575C231.693 30.6935 231.889 30.1026 231.889 29.3844C231.889 28.6663 231.693 28.0752 231.301 27.6112C230.909 27.1471 230.392 26.9151 229.751 26.9151ZM243.506 26.9151C242.865 26.9151 242.348 27.1471 241.956 27.6112C241.564 28.0752 241.368 28.6663 241.368 29.3844C241.368 30.1026 241.564 30.6935 241.956 31.1575C242.348 31.6216 242.865 31.8535 243.506 31.8535C244.146 31.8535 244.663 31.6216 245.055 31.1575C245.447 30.6935 245.643 30.1026 245.643 29.3844C245.643 28.6663 245.447 28.0752 245.055 27.6112C244.663 27.1471 244.146 26.9151 243.506 26.9151ZM261.801 26.9151C261.16 26.9151 260.643 27.1471 260.251 27.6112C259.859 28.0752 259.663 28.6663 259.663 29.3844C259.663 30.1026 259.859 30.6935 260.251 31.1575C260.643 31.6216 261.16 31.8535 261.801 31.8535C262.441 31.8535 262.958 31.6216 263.35 31.1575C263.742 30.6935 263.939 30.1026 263.939 29.3844C263.939 28.6663 263.742 28.0752 263.35 27.6112C262.958 27.1471 262.441 26.9151 261.801 26.9151ZM286.675 26.7328C286.144 26.7328 285.708 26.8794 285.366 27.172C285.023 27.4649 284.802 27.8655 284.703 28.3734H288.647C288.558 27.8763 288.343 27.4786 288.001 27.1803C287.658 26.882 287.216 26.7328 286.675 26.7328ZM218.497 21.6665L216.875 27.9981H214.366L216.063 21.6665H218.497Z" fill="#334BFF"/>
</g>
</g>
<path d="M303.128 33.132C300.992 33.132 299.864 31.944 299.864 29.7V24.6H301.028V29.688C301.028 31.344 301.748 32.052 303.116 32.052C304.496 32.052 305.216 31.344 305.216 29.688V24.6H306.368V29.7C306.368 31.944 305.252 33.132 303.128 33.132ZM308.127 33V27.108H309.195V27.876C309.651 27.24 310.179 26.976 310.995 26.976C312.363 26.976 313.047 27.744 313.047 29.4V33H311.931V29.496C311.931 28.44 311.583 27.996 310.743 27.996C309.675 27.996 309.243 28.716 309.243 29.916V33H308.127ZM316.391 33.132C315.179 33.132 314.447 32.556 314.447 31.476C314.447 30.288 315.455 29.88 316.691 29.664L318.263 29.388V29.172C318.263 28.224 317.807 27.936 317.015 27.936C316.211 27.936 315.803 28.224 315.707 28.896H314.591C314.687 27.636 315.695 26.976 317.039 26.976C318.563 26.976 319.379 27.648 319.379 29.352V33H318.299V32.184C317.783 32.904 317.255 33.132 316.391 33.132ZM316.667 32.184C317.519 32.184 318.263 31.62 318.263 30.756V30.288L317.027 30.504C316.127 30.66 315.551 30.78 315.551 31.416C315.551 31.932 315.887 32.184 316.667 32.184ZM326.432 33.132C324.98 33.132 324.104 32.472 323.972 31.236H325.076C325.208 31.92 325.676 32.196 326.456 32.196C327.296 32.196 327.752 31.98 327.752 31.416C327.752 30.972 327.452 30.744 326.636 30.552L326.12 30.432C324.692 30.096 324.128 29.58 324.128 28.68C324.128 27.588 324.968 26.976 326.36 26.976C327.788 26.976 328.628 27.612 328.748 28.788H327.632C327.536 28.152 327.104 27.912 326.384 27.912C325.652 27.912 325.244 28.104 325.244 28.62C325.244 29.04 325.52 29.268 326.3 29.448L326.828 29.568C328.256 29.892 328.868 30.408 328.868 31.344C328.868 32.484 327.956 33.132 326.432 33.132ZM332.581 33.132C330.901 33.132 329.785 31.92 329.785 30.048C329.785 28.188 330.901 26.976 332.581 26.976C334.261 26.976 335.365 28.188 335.365 30.048C335.365 31.92 334.261 33.132 332.581 33.132ZM332.581 32.124C333.625 32.124 334.237 31.404 334.237 30.048C334.237 28.692 333.625 27.984 332.581 27.984C331.525 27.984 330.913 28.692 330.913 30.048C330.913 31.404 331.525 32.124 332.581 32.124ZM338.208 33.072C337.152 33.072 336.744 32.592 336.744 31.644V24.6H337.86V31.416C337.86 31.884 338.004 32.088 338.424 32.088C338.508 32.088 338.592 32.088 338.688 32.076V33.012C338.556 33.048 338.376 33.072 338.208 33.072ZM341.817 33.12C340.461 33.12 339.777 32.352 339.777 30.696V27.108H340.893V30.6C340.893 31.656 341.241 32.1 342.081 32.1C343.089 32.1 343.521 31.38 343.521 30.18V27.108H344.637V33H343.569V32.208C343.149 32.856 342.621 33.12 341.817 33.12ZM348.775 33.132C347.107 33.132 346.015 31.92 346.015 30.048C346.015 28.188 347.107 26.976 348.775 26.976C350.083 26.976 351.091 27.708 351.367 29.004H350.227C349.987 28.308 349.483 27.984 348.775 27.984C347.743 27.984 347.119 28.704 347.119 30.048C347.119 31.392 347.743 32.124 348.775 32.124C349.495 32.124 350.011 31.812 350.239 31.02H351.379C351.103 32.352 350.107 33.132 348.775 33.132ZM352.587 25.944V24.78H353.787V25.944H352.587ZM352.623 33V27.108H353.739V33H352.623ZM357.221 26.292L358.061 24.6H359.261L358.145 26.292H357.221ZM357.917 33.132C356.237 33.132 355.121 31.92 355.121 30.048C355.121 28.188 356.237 26.976 357.917 26.976C359.597 26.976 360.701 28.188 360.701 30.048C360.701 31.92 359.597 33.132 357.917 33.132ZM357.917 32.124C358.961 32.124 359.573 31.404 359.573 30.048C359.573 28.692 358.961 27.984 357.917 27.984C356.861 27.984 356.249 28.692 356.249 30.048C356.249 31.404 356.861 32.124 357.917 32.124ZM362.08 33V27.108H363.148V27.876C363.604 27.24 364.132 26.976 364.948 26.976C366.316 26.976 367 27.744 367 29.4V33H365.884V29.496C365.884 28.44 365.536 27.996 364.696 27.996C363.628 27.996 363.196 28.716 363.196 29.916V33H362.08ZM374.213 33.132C372.629 33.132 371.597 31.92 371.597 30.048C371.597 28.188 372.653 26.976 374.213 26.976C374.993 26.976 375.497 27.216 376.013 27.828V24.6H377.129V33H376.061V32.208C375.509 32.856 374.993 33.132 374.213 33.132ZM374.369 32.124C375.425 32.124 376.037 31.404 376.037 30.048C376.037 28.692 375.425 27.984 374.369 27.984C373.325 27.984 372.701 28.692 372.701 30.048C372.701 31.404 373.325 32.124 374.369 32.124ZM382.735 31.284H383.887C383.455 32.604 382.447 33.132 381.343 33.132C379.663 33.132 378.511 31.92 378.511 30.048C378.511 28.032 379.747 26.976 381.247 26.976C382.843 26.976 383.851 28.188 383.851 29.868V30.264H379.651C379.711 31.536 380.383 32.148 381.343 32.148C382.075 32.148 382.483 31.884 382.735 31.284ZM381.247 27.936C380.419 27.936 379.843 28.404 379.687 29.424H382.687C382.615 28.416 382.099 27.936 381.247 27.936Z" fill="#000529"/>
<path fill-rule="evenodd" clip-rule="evenodd" d="M422.684 25.5114C423.284 25.5114 423.768 25.6019 424.136 25.7812C424.504 25.9613 424.791 26.2102 424.996 26.528C425.201 26.8465 425.34 27.2211 425.413 27.6525C425.487 28.084 425.524 28.5514 425.524 29.0541V33.1818H423.157V29.5159C423.157 29.3006 423.15 29.0773 423.134 28.846C423.118 28.6154 423.071 28.4025 422.991 28.2064C422.913 28.0119 422.792 27.8526 422.629 27.7294C422.466 27.6061 422.232 27.5445 421.926 27.5445C421.621 27.5445 421.375 27.5989 421.186 27.7062C420.996 27.8142 420.851 27.9583 420.751 28.1376C420.652 28.3177 420.586 28.5202 420.554 28.7459C420.523 28.9716 420.507 29.2078 420.507 29.4543V33.1818H418.139V25.6963H420.412V26.7129H420.443C420.517 26.5688 420.622 26.4255 420.76 26.2814C420.896 26.1382 421.059 26.0101 421.248 25.8964C421.438 25.7844 421.653 25.6915 421.895 25.6195C422.137 25.5474 422.4 25.5114 422.684 25.5114ZM429.399 23.8634V28.6539L432.018 25.6963H434.921L431.876 29.0693L435 33.1818H432.018L429.431 29.3927H429.399V33.1818H427.032V23.8634H429.399ZM416.601 25.6963V33.1818H414.234V25.6963H416.601ZM412.789 23.8634V26.0813L408.215 31.2336H412.891V33.1818H405.551V30.871L410.12 25.8132H405.551V23.865H405.552V23.8634H412.789ZM404.207 25.6966V33.1821H401.84V25.6966H404.207ZM389.4 23.8628L390.984 29.2696H391.015L392.956 23.8628H394.903L396.843 29.2696H396.875L398.459 23.8628H400.858L398.026 33.1813H395.913L393.945 27.7921H393.913L391.946 33.1813H389.832L387 23.8628H389.4ZM403.023 22.0002C403.402 22.0002 403.725 22.1307 403.994 22.3924C404.262 22.655 404.397 22.9703 404.397 23.3401C404.397 23.7099 404.262 24.0253 403.994 24.287C403.725 24.5488 403.402 24.68 403.023 24.68C402.645 24.68 402.321 24.5488 402.053 24.287C401.784 24.0253 401.651 23.7099 401.651 23.3401C401.651 22.9703 401.784 22.655 402.053 22.3924C402.321 22.1307 402.645 22.0002 403.023 22.0002ZM415.417 22C415.796 22 416.119 22.1313 416.388 22.393C416.656 22.6547 416.79 22.9701 416.79 23.3399C416.79 23.7097 416.656 24.0251 416.388 24.2868C416.119 24.5493 415.796 24.6798 415.417 24.6798C415.038 24.6798 414.716 24.5493 414.447 24.2868C414.179 24.0251 414.044 23.7097 414.044 23.3399C414.044 22.9701 414.179 22.6547 414.447 22.393C414.716 22.1313 415.038 22 415.417 22Z" fill="#000529"/>
<path d="M607.001 26.6442L615.251 18.3945L617.608 20.7515L609.358 29.0012L617.608 37.2507L615.251 39.6077L607.001 31.3582L598.752 39.6077L596.395 37.2507L604.644 29.0012L596.395 20.7515L598.752 18.3945L607.001 26.6442Z" fill="#000529"/>
</g>
<rect width="632" height="155" transform="translate(3 59)" fill="url(#paint0_linear_15115_13146)"/>
<path d="M216.19 118V97H224.59C229.24 97 232.3 99.64 232.3 104.14C232.3 108.64 229.24 111.31 224.59 111.31H220.39V118H216.19ZM220.39 107.47H224.65C226.84 107.47 228.1 106.21 228.1 104.14C228.1 102.1 226.84 100.84 224.65 100.84H220.39V107.47ZM238.576 118.36C235.306 118.36 233.566 116.8 233.566 114.01C233.566 110.89 236.446 109.9 239.326 109.45L242.926 108.85V108.34C242.926 106.63 242.116 105.91 240.466 105.91C238.876 105.91 238.036 106.69 237.946 107.92H233.926C234.016 104.47 237.016 102.88 240.616 102.88C245.026 102.88 246.946 104.71 246.946 109.3V118H243.136V116.08C242.056 117.7 240.466 118.36 238.576 118.36ZM239.686 115.3C241.396 115.3 242.926 114.19 242.926 112.36V111.43L240.316 111.85C238.636 112.12 237.586 112.51 237.586 113.77C237.586 114.79 238.216 115.3 239.686 115.3ZM257.24 124.72C253.04 124.72 250.16 122.68 250.04 119.2H254.3C254.51 120.88 255.5 121.45 257.24 121.45C259.37 121.45 260.18 120.28 260.18 117.73V116.29C259.1 117.58 257.84 118.12 256.22 118.12C252.14 118.12 249.53 115.15 249.53 110.5C249.53 105.85 252.14 102.88 256.22 102.88C257.99 102.88 259.31 103.51 260.42 104.77V103.21H264.2V117.55C264.2 122.23 261.89 124.72 257.24 124.72ZM256.91 114.73C259.04 114.73 260.3 113.23 260.3 110.5C260.3 107.77 259.04 106.24 256.91 106.24C254.81 106.24 253.55 107.77 253.55 110.5C253.55 113.23 254.81 114.73 256.91 114.73ZM274.401 118.36C269.931 118.36 266.991 115.33 266.991 110.59C266.991 105.91 269.931 102.88 274.401 102.88C278.901 102.88 281.811 105.91 281.811 110.59C281.811 115.33 278.901 118.36 274.401 118.36ZM274.401 114.97C276.501 114.97 277.761 113.38 277.761 110.59C277.761 107.8 276.501 106.24 274.401 106.24C272.271 106.24 271.011 107.8 271.011 110.59C271.011 113.38 272.271 114.97 274.401 114.97ZM301.6 113.26H305.71C304.6 117.22 301.48 118.36 298.69 118.36C294.13 118.36 291.16 115.33 291.16 110.59C291.16 105.07 294.85 102.88 298.48 102.88C303.1 102.88 305.65 106.21 305.65 110.68V111.43H295.3C295.54 113.98 296.86 115.09 298.69 115.09C300.46 115.09 301.24 114.31 301.6 113.26ZM298.48 105.97C297.01 105.97 295.78 106.78 295.39 108.94H301.36C301.21 106.9 300.13 105.97 298.48 105.97ZM308.379 118V103.21H312.189V105.01C313.209 103.57 314.619 102.88 316.419 102.88C320.049 102.88 321.849 104.74 321.849 109.21V118H317.829V109.54C317.829 107.14 316.989 106.33 315.309 106.33C313.449 106.33 312.429 107.59 312.429 109.96V118H308.379ZM335.301 118V103.45H331.551V100.42C334.641 100.39 335.931 99.55 336.231 97H339.501V118H335.301ZM350.758 118.36C346.498 118.36 344.008 115.99 343.438 112.57H347.668C348.058 113.92 349.078 114.64 350.638 114.64C352.708 114.64 353.968 113.26 353.968 110.98C353.968 108.79 352.708 107.41 350.668 107.41C348.988 107.41 348.028 108.34 347.698 109.45H343.768V97H357.088V100.87H347.548V105.46C348.358 104.32 349.828 103.78 351.448 103.78C355.678 103.78 358.168 106.96 358.168 110.98C358.168 115.24 355.138 118.36 350.758 118.36ZM374.284 118.36C370.264 118.36 367.684 115.33 367.684 110.59C367.684 105.91 370.384 102.88 374.284 102.88C375.994 102.88 377.284 103.45 378.334 104.59V97H382.354V118H378.574V116.29C377.374 117.67 376.024 118.36 374.284 118.36ZM375.064 114.97C377.194 114.97 378.454 113.41 378.454 110.59C378.454 107.8 377.194 106.24 375.064 106.24C372.964 106.24 371.704 107.8 371.704 110.59C371.704 113.41 372.964 114.97 375.064 114.97ZM385.805 101.41L388.265 97H392.495L389.105 101.41H385.805ZM386.045 118V103.21H390.095V118H386.045ZM398.01 118.36C394.74 118.36 393 116.8 393 114.01C393 110.89 395.88 109.9 398.76 109.45L402.36 108.85V108.34C402.36 106.63 401.55 105.91 399.9 105.91C398.31 105.91 397.47 106.69 397.38 107.92H393.36C393.45 104.47 396.45 102.88 400.05 102.88C404.46 102.88 406.38 104.71 406.38 109.3V118H402.57V116.08C401.49 117.7 399.9 118.36 398.01 118.36ZM399.12 115.3C400.83 115.3 402.36 114.19 402.36 112.36V111.43L399.75 111.85C398.07 112.12 397.02 112.51 397.02 113.77C397.02 114.79 397.65 115.3 399.12 115.3ZM415.593 118.36C411.513 118.36 409.143 116.62 408.843 113.26H412.803C413.043 114.76 413.973 115.39 415.713 115.39C417.303 115.39 418.203 114.94 418.203 113.92C418.203 113.14 417.633 112.66 416.073 112.33L414.843 112.03C410.973 111.16 409.293 109.96 409.293 107.5C409.293 104.44 411.573 102.88 415.353 102.88C419.523 102.88 421.773 104.56 421.983 107.83H418.023C417.933 106.39 417.063 105.82 415.503 105.82C414.093 105.82 413.283 106.24 413.283 107.23C413.283 107.98 413.823 108.46 415.353 108.79L416.613 109.06C420.453 109.93 422.193 111.16 422.193 113.65C422.193 116.74 419.703 118.36 415.593 118.36Z" fill="white"/>
<path d="M205.18 154V141.8H200.88V140H211.42V141.8H207.12V154H205.18ZM216.194 154.22C213.394 154.22 211.534 152.2 211.534 149.08C211.534 145.98 213.394 143.96 216.194 143.96C218.994 143.96 220.834 145.98 220.834 149.08C220.834 152.2 218.994 154.22 216.194 154.22ZM216.194 152.54C217.934 152.54 218.954 151.34 218.954 149.08C218.954 146.82 217.934 145.64 216.194 145.64C214.434 145.64 213.414 146.82 213.414 149.08C213.414 151.34 214.434 152.54 216.194 152.54ZM226.093 154.16C224.113 154.16 223.433 153.16 223.433 151.56V145.86H222.013V144.18H223.433V141.3H225.293V144.18H227.413V145.86H225.293V151.16C225.293 152 225.493 152.46 226.553 152.46C226.893 152.46 227.113 152.42 227.413 152.36V154C226.973 154.1 226.533 154.16 226.093 154.16ZM231.946 154.22C229.926 154.22 228.706 153.26 228.706 151.46C228.706 149.48 230.386 148.8 232.446 148.44L235.066 147.98V147.62C235.066 146.04 234.306 145.56 232.986 145.56C231.646 145.56 230.966 146.04 230.806 147.16H228.946C229.106 145.06 230.786 143.96 233.026 143.96C235.566 143.96 236.926 145.08 236.926 147.92V154H235.126V152.64C234.266 153.84 233.386 154.22 231.946 154.22ZM232.406 152.64C233.826 152.64 235.066 151.7 235.066 150.26V149.48L233.006 149.84C231.506 150.1 230.546 150.3 230.546 151.36C230.546 152.22 231.106 152.64 232.406 152.64ZM242.253 154.12C240.493 154.12 239.813 153.32 239.813 151.74V140H241.673V151.36C241.673 152.14 241.913 152.48 242.613 152.48C242.753 152.48 242.893 152.48 243.053 152.46V154.02C242.833 154.08 242.533 154.12 242.253 154.12ZM254.137 154.22C251.497 154.22 249.777 152.2 249.777 149.08C249.777 145.98 251.537 143.96 254.137 143.96C255.437 143.96 256.277 144.36 257.137 145.38V140H258.997V154H257.217V152.68C256.297 153.76 255.437 154.22 254.137 154.22ZM254.397 152.54C256.157 152.54 257.177 151.34 257.177 149.08C257.177 146.82 256.157 145.64 254.397 145.64C252.657 145.64 251.617 146.82 251.617 149.08C251.617 151.34 252.657 152.54 254.397 152.54ZM268.34 151.14H270.26C269.54 153.34 267.86 154.22 266.02 154.22C263.22 154.22 261.3 152.2 261.3 149.08C261.3 145.72 263.36 143.96 265.86 143.96C268.52 143.96 270.2 145.98 270.2 148.78V149.44H263.2C263.3 151.56 264.42 152.58 266.02 152.58C267.24 152.58 267.92 152.14 268.34 151.14ZM265.86 145.56C264.48 145.56 263.52 146.34 263.26 148.04H268.26C268.14 146.36 267.28 145.56 265.86 145.56ZM280.456 154.12C278.696 154.12 278.016 153.32 278.016 151.74V140H279.876V151.36C279.876 152.14 280.116 152.48 280.816 152.48C280.956 152.48 281.096 152.48 281.256 152.46V154.02C281.036 154.08 280.736 154.12 280.456 154.12ZM285.891 154.22C283.871 154.22 282.651 153.26 282.651 151.46C282.651 149.48 284.331 148.8 286.391 148.44L289.011 147.98V147.62C289.011 146.04 288.251 145.56 286.931 145.56C285.591 145.56 284.911 146.04 284.751 147.16H282.891C283.051 145.06 284.731 143.96 286.971 143.96C289.511 143.96 290.871 145.08 290.871 147.92V154H289.071V152.64C288.211 153.84 287.331 154.22 285.891 154.22ZM286.351 152.64C287.771 152.64 289.011 151.7 289.011 150.26V149.48L286.951 149.84C285.451 150.1 284.491 150.3 284.491 151.36C284.491 152.22 285.051 152.64 286.351 152.64ZM303.146 154.22C300.366 154.22 298.546 152.2 298.546 149.08C298.546 145.98 300.366 143.96 303.146 143.96C305.326 143.96 307.006 145.18 307.466 147.34H305.566C305.166 146.18 304.326 145.64 303.146 145.64C301.426 145.64 300.386 146.84 300.386 149.08C300.386 151.32 301.426 152.54 303.146 152.54C304.346 152.54 305.206 152.02 305.586 150.7H307.486C307.026 152.92 305.366 154.22 303.146 154.22ZM313.48 154.22C310.68 154.22 308.82 152.2 308.82 149.08C308.82 145.98 310.68 143.96 313.48 143.96C316.28 143.96 318.12 145.98 318.12 149.08C318.12 152.2 316.28 154.22 313.48 154.22ZM313.48 152.54C315.22 152.54 316.24 151.34 316.24 149.08C316.24 146.82 315.22 145.64 313.48 145.64C311.72 145.64 310.7 146.82 310.7 149.08C310.7 151.34 311.72 152.54 313.48 152.54ZM331.158 143.96C333.418 143.96 334.558 145.24 334.558 148V154H332.698V148.12C332.698 146.4 332.158 145.66 330.818 145.66C329.118 145.66 328.418 146.86 328.418 148.94V154H326.558V148.12C326.558 146.4 325.998 145.66 324.678 145.66C322.958 145.66 322.278 146.86 322.278 148.94V154H320.418V144.18H322.198V145.46C322.958 144.4 323.778 143.96 325.078 143.96C326.458 143.96 327.438 144.5 327.978 145.7C328.658 144.54 329.758 143.96 331.158 143.96ZM337.293 158.34V144.18H339.073V145.46C339.913 144.4 340.853 143.96 342.153 143.96C344.793 143.96 346.513 145.98 346.513 149.08C346.513 152.2 344.753 154.22 342.153 154.22C340.853 154.22 339.913 153.78 339.153 152.78V158.34H337.293ZM341.893 152.54C343.633 152.54 344.673 151.34 344.673 149.08C344.673 146.82 343.633 145.64 341.893 145.64C340.133 145.64 339.113 146.82 339.113 149.08C339.113 151.34 340.133 152.54 341.893 152.54ZM348.816 154V144.18H350.596V145.84C351.136 144.64 352.076 144.08 353.196 144.08C353.396 144.08 353.656 144.1 353.856 144.16V145.92C353.556 145.88 353.396 145.86 353.136 145.86C351.476 145.86 350.676 147.02 350.676 149.32V154H348.816ZM358.177 154.22C356.157 154.22 354.937 153.26 354.937 151.46C354.937 149.48 356.617 148.8 358.677 148.44L361.297 147.98V147.62C361.297 146.04 360.537 145.56 359.217 145.56C357.877 145.56 357.197 146.04 357.037 147.16H355.177C355.337 145.06 357.017 143.96 359.257 143.96C361.797 143.96 363.157 145.08 363.157 147.92V154H361.357V152.64C360.497 153.84 359.617 154.22 358.177 154.22ZM358.637 152.64C360.057 152.64 361.297 151.7 361.297 150.26V149.48L359.237 149.84C357.737 150.1 356.777 150.3 356.777 151.36C356.777 152.22 357.337 152.64 358.637 152.64ZM376.271 154.24C372.911 154.24 370.911 151.54 370.911 147C370.911 142.46 372.911 139.76 376.271 139.76C379.631 139.76 381.631 142.46 381.631 147C381.631 151.54 379.631 154.24 376.271 154.24ZM376.271 151.76C377.871 151.76 378.831 150.02 378.831 147C378.831 143.98 377.871 142.24 376.271 142.24C374.671 142.24 373.731 143.98 373.731 147C373.731 150.02 374.671 151.76 376.271 151.76ZM388.752 154.24C385.392 154.24 383.392 151.54 383.392 147C383.392 142.46 385.392 139.76 388.752 139.76C392.112 139.76 394.112 142.46 394.112 147C394.112 151.54 392.112 154.24 388.752 154.24ZM388.752 151.76C390.352 151.76 391.312 150.02 391.312 147C391.312 143.98 390.352 142.24 388.752 142.24C387.152 142.24 386.212 143.98 386.212 147C386.212 150.02 387.152 151.76 388.752 151.76ZM395.967 156.56C396.427 155.52 396.527 154.78 396.547 154H395.447V150.96H398.287V152.8C398.287 154.48 398.127 155.5 397.547 156.56H395.967ZM404.982 154.24C401.622 154.24 399.622 151.54 399.622 147C399.622 142.46 401.622 139.76 404.982 139.76C408.342 139.76 410.342 142.46 410.342 147C410.342 151.54 408.342 154.24 404.982 154.24ZM404.982 151.76C406.582 151.76 407.542 150.02 407.542 147C407.542 143.98 406.582 142.24 404.982 142.24C403.382 142.24 402.442 143.98 402.442 147C402.442 150.02 403.382 151.76 404.982 151.76ZM417.463 154.24C414.103 154.24 412.103 151.54 412.103 147C412.103 142.46 414.103 139.76 417.463 139.76C420.823 139.76 422.823 142.46 422.823 147C422.823 151.54 420.823 154.24 417.463 154.24ZM417.463 151.76C419.063 151.76 420.023 150.02 420.023 147C420.023 143.98 419.063 142.24 417.463 142.24C415.863 142.24 414.923 143.98 414.923 147C414.923 150.02 415.863 151.76 417.463 151.76ZM431.683 151.74C432.843 151.74 433.523 151.38 434.123 150.52L435.803 152.36C434.823 153.54 433.543 154.24 431.583 154.24C428.703 154.24 426.523 152.46 425.723 149.56H424.183V147.7H425.423C425.403 147.46 425.403 147.22 425.403 146.96C425.403 146.74 425.403 146.52 425.423 146.32H424.183V144.46H425.723C426.523 141.6 428.703 139.76 431.583 139.76C433.583 139.76 435.043 140.48 435.863 141.68L434.123 143.44C433.543 142.66 432.843 142.26 431.683 142.26C430.283 142.26 429.203 143.08 428.643 144.46H432.103V146.32H428.223C428.203 146.54 428.203 146.76 428.203 147C428.203 147.24 428.203 147.48 428.223 147.7H432.103V149.56H428.663C429.223 150.94 430.283 151.74 431.683 151.74Z" fill="white"/>
<g filter="url(#filter1_dd_15115_13146)">
<rect x="22.5" y="186" width="593" height="324" rx="8" fill="white" shape-rendering="crispEdges"/>
<path d="M252 240C252 253.807 263.193 265 277 265C290.807 265 302 253.807 302 240C302 226.193 290.807 215 277 215C263.193 215 252 226.193 252 240ZM297 240C297 251.046 288.046 260 277 260C265.954 260 257 251.046 257 240C257 228.954 265.954 220 277 220C288.046 220 297 228.954 297 240Z" fill="#334BFF"/>
<path d="M269.492 301.192C266.804 301.192 265.204 299.032 265.204 295.4C265.204 291.768 266.804 289.608 269.492 289.608C272.18 289.608 273.78 291.768 273.78 295.4C273.78 299.032 272.18 301.192 269.492 301.192ZM269.492 299.208C270.772 299.208 271.54 297.816 271.54 295.4C271.54 292.984 270.772 291.592 269.492 291.592C268.212 291.592 267.46 292.984 267.46 295.4C267.46 297.816 268.212 299.208 269.492 299.208ZM284.884 299.192C285.812 299.192 286.356 298.904 286.836 298.216L288.18 299.688C287.396 300.632 286.372 301.192 284.804 301.192C282.5 301.192 280.756 299.768 280.116 297.448H278.884V295.96H279.876C279.86 295.768 279.86 295.576 279.86 295.368C279.86 295.192 279.86 295.016 279.876 294.856H278.884V293.368H280.116C280.756 291.08 282.5 289.608 284.804 289.608C286.404 289.608 287.572 290.184 288.228 291.144L286.836 292.552C286.372 291.928 285.812 291.608 284.884 291.608C283.764 291.608 282.9 292.264 282.452 293.368H285.22V294.856H282.116C282.1 295.032 282.1 295.208 282.1 295.4C282.1 295.592 282.1 295.784 282.116 295.96H285.22V297.448H282.468C282.916 298.552 283.764 299.192 284.884 299.192Z" fill="black"/>
<path d="M260.18 329L259.214 326.368H255.196L254.244 329H252.844L256.54 319.2H257.898L261.594 329H260.18ZM255.644 325.136H258.766L257.198 320.838L255.644 325.136ZM266.566 332.038V322.126H267.812V323.022C268.4 322.28 269.058 321.972 269.968 321.972C271.816 321.972 273.02 323.386 273.02 325.556C273.02 327.74 271.788 329.154 269.968 329.154C269.058 329.154 268.4 328.846 267.868 328.146V332.038H266.566ZM269.786 327.978C271.004 327.978 271.732 327.138 271.732 325.556C271.732 323.974 271.004 323.148 269.786 323.148C268.554 323.148 267.84 323.974 267.84 325.556C267.84 327.138 268.554 327.978 269.786 327.978ZM276.522 329.154C275.108 329.154 274.254 328.482 274.254 327.222C274.254 325.836 275.43 325.36 276.872 325.108L278.706 324.786V324.534C278.706 323.428 278.174 323.092 277.25 323.092C276.312 323.092 275.836 323.428 275.724 324.212H274.422C274.534 322.742 275.71 321.972 277.278 321.972C279.056 321.972 280.008 322.756 280.008 324.744V329H278.748V328.048C278.146 328.888 277.53 329.154 276.522 329.154ZM276.844 328.048C277.838 328.048 278.706 327.39 278.706 326.382V325.836L277.264 326.088C276.214 326.27 275.542 326.41 275.542 327.152C275.542 327.754 275.934 328.048 276.844 328.048ZM284.871 332.178C283.079 332.178 281.833 331.338 281.735 329.714H283.079C283.219 330.708 283.807 331.03 284.871 331.03C286.215 331.03 286.691 330.358 286.691 328.846V328.062C286.103 328.79 285.501 329.07 284.605 329.07C282.757 329.07 281.539 327.684 281.539 325.528C281.539 323.372 282.757 321.972 284.605 321.972C285.529 321.972 286.145 322.294 286.747 323.008V322.126H287.993V328.804C287.993 330.89 287.097 332.178 284.871 332.178ZM284.773 327.894C286.005 327.894 286.719 327.082 286.719 325.528C286.719 323.96 286.005 323.148 284.773 323.148C283.555 323.148 282.827 323.96 282.827 325.528C282.827 327.082 283.555 327.894 284.773 327.894ZM291.985 329.154C290.571 329.154 289.717 328.482 289.717 327.222C289.717 325.836 290.893 325.36 292.335 325.108L294.169 324.786V324.534C294.169 323.428 293.637 323.092 292.713 323.092C291.775 323.092 291.299 323.428 291.187 324.212H289.885C289.997 322.742 291.173 321.972 292.741 321.972C294.519 321.972 295.471 322.756 295.471 324.744V329H294.211V328.048C293.609 328.888 292.993 329.154 291.985 329.154ZM292.307 328.048C293.301 328.048 294.169 327.39 294.169 326.382V325.836L292.727 326.088C291.677 326.27 291.005 326.41 291.005 327.152C291.005 327.754 291.397 328.048 292.307 328.048ZM297.491 329V322.126H298.737V323.288C299.115 322.448 299.773 322.056 300.557 322.056C300.697 322.056 300.879 322.07 301.019 322.112V323.344C300.809 323.316 300.697 323.302 300.515 323.302C299.353 323.302 298.793 324.114 298.793 325.724V329H297.491ZM267.126 349V339.2H268.428V343.008C268.932 342.252 269.548 341.972 270.486 341.972C272.068 341.972 272.866 342.868 272.866 344.8V349H271.564V344.912C271.564 343.68 271.158 343.162 270.178 343.162C268.932 343.162 268.428 344.002 268.428 345.402V349H267.126ZM277.65 349.154C275.69 349.154 274.388 347.74 274.388 345.556C274.388 343.386 275.69 341.972 277.65 341.972C279.61 341.972 280.898 343.386 280.898 345.556C280.898 347.74 279.61 349.154 277.65 349.154ZM277.65 347.978C278.868 347.978 279.582 347.138 279.582 345.556C279.582 343.974 278.868 343.148 277.65 343.148C276.418 343.148 275.704 343.974 275.704 345.556C275.704 347.138 276.418 347.978 277.65 347.978ZM282.719 352.178C282.383 352.178 282.103 352.15 281.851 352.08L281.935 350.946C282.159 351.016 282.355 351.044 282.551 351.044C283.083 351.044 283.349 350.862 283.587 350.19L284.049 348.888L281.445 342.126H282.817L284.735 347.334L286.527 342.126H287.857L284.763 350.47C284.287 351.744 283.783 352.178 282.719 352.178Z" fill="black"/>
<path d="M336 240C336 253.807 347.193 265 361 265C374.807 265 386 253.807 386 240C386 226.193 374.807 215 361 215C347.193 215 336 226.193 336 240ZM381 240C381 251.046 372.046 260 361 260C349.954 260 341 251.046 341 240C341 228.954 349.954 220 361 220C372.046 220 381 228.954 381 240ZM361 255C369.284 255 376 248.284 376 240C376 231.716 369.284 225 361 225C352.716 225 346 231.716 346 240C346 248.284 352.716 255 361 255Z" fill="#334BFF"/>
<path d="M342.772 301V293.24H340.772V291.624C342.42 291.608 343.108 291.16 343.268 289.8H345.012V301H342.772ZM351.336 301.192C348.648 301.192 347.048 299.032 347.048 295.4C347.048 291.768 348.648 289.608 351.336 289.608C354.024 289.608 355.624 291.768 355.624 295.4C355.624 299.032 354.024 301.192 351.336 301.192ZM351.336 299.208C352.616 299.208 353.384 297.816 353.384 295.4C353.384 292.984 352.616 291.592 351.336 291.592C350.056 291.592 349.304 292.984 349.304 295.4C349.304 297.816 350.056 299.208 351.336 299.208ZM361.32 301.192C358.632 301.192 357.032 299.032 357.032 295.4C357.032 291.768 358.632 289.608 361.32 289.608C364.008 289.608 365.608 291.768 365.608 295.4C365.608 299.032 364.008 301.192 361.32 301.192ZM361.32 299.208C362.6 299.208 363.368 297.816 363.368 295.4C363.368 292.984 362.6 291.592 361.32 291.592C360.04 291.592 359.288 292.984 359.288 295.4C359.288 297.816 360.04 299.208 361.32 299.208ZM376.712 299.192C377.64 299.192 378.184 298.904 378.664 298.216L380.008 299.688C379.224 300.632 378.2 301.192 376.632 301.192C374.328 301.192 372.584 299.768 371.944 297.448H370.712V295.96H371.704C371.688 295.768 371.688 295.576 371.688 295.368C371.688 295.192 371.688 295.016 371.704 294.856H370.712V293.368H371.944C372.584 291.08 374.328 289.608 376.632 289.608C378.232 289.608 379.4 290.184 380.056 291.144L378.664 292.552C378.2 291.928 377.64 291.608 376.712 291.608C375.592 291.608 374.728 292.264 374.28 293.368H377.048V294.856H373.944C373.928 295.032 373.928 295.208 373.928 295.4C373.928 295.592 373.928 295.784 373.944 295.96H377.048V297.448H374.296C374.744 298.552 375.592 299.192 376.712 299.192Z" fill="black"/>
<path d="M351.355 329.154C349.339 329.154 347.967 328.02 347.967 326.27C347.967 325.22 348.485 324.282 349.675 323.862C348.737 323.498 348.247 322.686 348.247 321.706C348.247 320.152 349.479 319.046 351.355 319.046C353.245 319.046 354.463 320.152 354.463 321.706C354.463 322.686 353.973 323.498 353.035 323.862C354.225 324.268 354.743 325.22 354.743 326.27C354.743 328.02 353.371 329.154 351.355 329.154ZM351.355 323.288C352.405 323.288 353.105 322.7 353.105 321.748C353.105 320.796 352.405 320.278 351.355 320.278C350.291 320.278 349.605 320.796 349.605 321.748C349.605 322.7 350.291 323.288 351.355 323.288ZM351.355 327.922C352.559 327.922 353.385 327.292 353.385 326.214C353.385 325.136 352.559 324.464 351.355 324.464C350.151 324.464 349.325 325.136 349.325 326.214C349.325 327.292 350.151 327.922 351.355 327.922ZM362.91 329.154C361.062 329.154 359.858 327.74 359.858 325.556C359.858 323.386 361.09 321.972 362.91 321.972C363.82 321.972 364.408 322.252 365.01 322.966V319.2H366.312V329H365.066V328.076C364.422 328.832 363.82 329.154 362.91 329.154ZM363.092 327.978C364.324 327.978 365.038 327.138 365.038 325.556C365.038 323.974 364.324 323.148 363.092 323.148C361.874 323.148 361.146 323.974 361.146 325.556C361.146 327.138 361.874 327.978 363.092 327.978ZM372.852 326.998H374.196C373.692 328.538 372.516 329.154 371.228 329.154C369.268 329.154 367.924 327.74 367.924 325.556C367.924 323.204 369.366 321.972 371.116 321.972C372.978 321.972 374.154 323.386 374.154 325.346V325.808H369.254C369.324 327.292 370.108 328.006 371.228 328.006C372.082 328.006 372.558 327.698 372.852 326.998ZM371.116 323.092C370.15 323.092 369.478 323.638 369.296 324.828H372.796C372.712 323.652 372.11 323.092 371.116 323.092ZM348.781 349.154C348.347 349.154 347.871 349.098 347.451 348.958V347.698C347.815 347.838 348.193 347.908 348.543 347.908C349.621 347.908 350.013 347.418 350.013 346.018V339.2H351.371V346.298C351.371 348.118 350.615 349.154 348.781 349.154ZM355.822 349.14C354.24 349.14 353.442 348.244 353.442 346.312V342.126H354.744V346.2C354.744 347.432 355.15 347.95 356.13 347.95C357.306 347.95 357.81 347.11 357.81 345.71V342.126H359.112V349H357.866V348.076C357.376 348.832 356.76 349.14 355.822 349.14ZM362.917 349.084C361.685 349.084 361.209 348.524 361.209 347.418V339.2H362.511V347.152C362.511 347.698 362.679 347.936 363.169 347.936C363.267 347.936 363.365 347.936 363.477 347.922V349.014C363.323 349.056 363.113 349.084 362.917 349.084ZM364.79 340.768V339.41H366.19V340.768H364.79ZM364.832 349V342.126H366.134V349H364.832ZM371.009 349.154C369.049 349.154 367.747 347.74 367.747 345.556C367.747 343.386 369.049 341.972 371.009 341.972C372.969 341.972 374.257 343.386 374.257 345.556C374.257 347.74 372.969 349.154 371.009 349.154ZM371.009 347.978C372.227 347.978 372.941 347.138 372.941 345.556C372.941 343.974 372.227 343.148 371.009 343.148C369.777 343.148 369.063 343.974 369.063 345.556C369.063 347.138 369.777 347.978 371.009 347.978Z" fill="black"/>
<line x1="161" y1="377.5" x2="477" y2="377.5" stroke="#EDEDED"/>
<rect x="38.5" y="402" width="561" height="84" rx="4" fill="#F0F2FF"/>
<path d="M168 426V425C168 421.686 170.686 419 174 419C177.314 419 180 421.686 180 425V426H182C182.552 426 183 426.448 183 427V439C183 439.552 182.552 440 182 440H166C165.448 440 165 439.552 165 439V427C165 426.448 165.448 426 166 426H168ZM181 428H167V438H181V428ZM173 433.732C172.402 433.387 172 432.74 172 432C172 430.895 172.895 430 174 430C175.105 430 176 430.895 176 432C176 432.74 175.598 433.387 175 433.732V436H173V433.732ZM170 426H178V425C178 422.791 176.209 421 174 421C171.791 421 170 422.791 170 425V426Z" fill="#000529"/>
<path d="M149.955 465.154C147.575 465.154 146.077 464.076 145.965 461.962H147.323C147.407 463.25 148.261 463.894 149.955 463.894C151.439 463.894 152.307 463.432 152.307 462.326C152.307 461.514 151.859 461.122 150.375 460.772L149.045 460.478C147.029 460.002 146.245 459.232 146.245 457.776C146.245 456.166 147.463 455.046 149.717 455.046C151.803 455.046 153.189 455.984 153.385 457.986H152.027C151.887 456.768 151.075 456.306 149.717 456.306C148.359 456.306 147.603 456.726 147.603 457.678C147.603 458.504 148.009 458.896 149.423 459.218L150.753 459.526C152.839 460.016 153.665 460.8 153.665 462.27C153.665 464.132 152.195 465.154 149.955 465.154ZM155.372 465V455.2H162.05V456.46H156.73V459.344H161.364V460.604H156.73V463.74H162.218V465H155.372ZM163.482 460.086C163.482 457.118 165.344 455.046 168.144 455.046C170.3 455.046 171.854 456.25 172.414 458.238H171C170.524 456.922 169.544 456.306 168.144 456.306C166.114 456.306 164.84 457.762 164.84 460.1C164.84 462.438 166.128 463.894 168.158 463.894C169.81 463.894 170.958 462.998 171.238 461.094H168.536V459.862H172.666V460.17C172.666 463.208 170.776 465.154 168.116 465.154C165.344 465.154 163.482 463.11 163.482 460.086ZM178.085 465.154C175.593 465.154 174.277 463.768 174.277 461.15V455.2H175.635V461.136C175.635 463.068 176.475 463.894 178.071 463.894C179.681 463.894 180.521 463.068 180.521 461.136V455.2H181.865V461.15C181.865 463.768 180.563 465.154 178.085 465.154ZM191.644 465H190.006L187.332 461.234H185.372V465H184.014V455.2H187.85C190.006 455.2 191.266 456.348 191.266 458.224C191.266 459.792 190.412 460.856 188.942 461.178L191.644 465ZM185.372 456.46V460.016H187.836C189.194 460.016 189.908 459.414 189.908 458.224C189.908 457.062 189.194 456.46 187.836 456.46H185.372ZM197.237 465.154C194.451 465.154 192.603 463.11 192.603 460.086C192.603 457.118 194.465 455.046 197.251 455.046C200.023 455.046 201.871 457.09 201.871 460.086C201.871 463.082 200.023 465.154 197.237 465.154ZM197.237 463.894C199.267 463.894 200.513 462.438 200.513 460.1C200.513 457.762 199.267 456.306 197.237 456.306C195.221 456.306 193.961 457.762 193.961 460.1C193.961 462.438 195.221 463.894 197.237 463.894Z" fill="#000529"/>
<path d="M317.055 420.094C318.177 419.139 319.826 419.139 320.947 420.094L322.295 421.243C322.455 421.379 322.654 421.462 322.864 421.479L324.63 421.619C326.098 421.737 327.264 422.903 327.381 424.371L327.522 426.137C327.539 426.347 327.621 426.546 327.758 426.706L328.907 428.054C329.862 429.175 329.862 430.824 328.907 431.946L327.758 433.293C327.622 433.454 327.539 433.653 327.522 433.863L327.381 435.628C327.264 437.097 326.098 438.263 324.63 438.38L322.864 438.521C322.654 438.538 322.455 438.62 322.295 438.757L320.947 439.905C319.826 440.861 318.177 440.861 317.055 439.905L315.707 438.757C315.547 438.62 315.348 438.538 315.138 438.521L313.373 438.38C311.904 438.263 310.738 437.097 310.621 435.628L310.48 433.863C310.463 433.653 310.381 433.454 310.244 433.294L309.096 431.945C308.14 430.824 308.14 429.175 309.096 428.054L310.244 426.706C310.381 426.546 310.463 426.347 310.48 426.137L310.621 424.371C310.738 422.903 311.904 421.737 313.373 421.619L315.138 421.479C315.348 421.462 315.547 421.379 315.707 421.243L317.055 420.094ZM319.65 421.616C319.276 421.298 318.726 421.298 318.353 421.616L317.005 422.765C316.524 423.175 315.927 423.422 315.297 423.472L313.532 423.613C313.042 423.652 312.654 424.041 312.615 424.53L312.474 426.296C312.423 426.925 312.176 427.523 311.767 428.003L310.618 429.351C310.299 429.725 310.299 430.275 310.618 430.648L311.767 431.996C312.176 432.477 312.423 433.074 312.474 433.703L312.615 435.469C312.654 435.958 313.042 436.347 313.532 436.386L315.297 436.527C315.927 436.577 316.524 436.825 317.005 437.234L318.353 438.383C318.726 438.702 319.276 438.702 319.65 438.383L320.998 437.234C321.478 436.825 322.076 436.577 322.705 436.527L324.47 436.386C324.96 436.347 325.349 435.958 325.388 435.469L325.529 433.703C325.579 433.074 325.826 432.477 326.236 431.996L327.385 430.648C327.703 430.275 327.703 429.725 327.385 429.351L326.236 428.003C325.826 427.523 325.579 426.925 325.529 426.296L325.388 424.53C325.349 424.041 324.96 423.652 324.47 423.613L322.705 423.472C322.076 423.422 321.478 423.175 320.998 422.765L319.65 421.616ZM321.829 425.757L323.244 427.171L316.173 434.242L314.758 432.828L321.829 425.757ZM317.233 428.232C316.647 428.818 315.698 428.818 315.112 428.232C314.526 427.646 314.526 426.697 315.112 426.111C315.698 425.525 316.647 425.525 317.233 426.111C317.819 426.697 317.819 427.646 317.233 428.232ZM320.769 433.889C321.354 434.475 322.304 434.475 322.89 433.889C323.476 433.303 323.476 432.353 322.89 431.768C322.304 431.182 321.354 431.182 320.769 431.768C320.183 432.353 320.183 433.303 320.769 433.889Z" fill="#000529"/>
<path d="M298.355 465.168C296.003 465.168 294.603 463.278 294.603 460.1C294.603 456.922 296.003 455.032 298.355 455.032C300.707 455.032 302.107 456.922 302.107 460.1C302.107 463.278 300.707 465.168 298.355 465.168ZM298.355 463.432C299.475 463.432 300.147 462.214 300.147 460.1C300.147 457.986 299.475 456.768 298.355 456.768C297.235 456.768 296.577 457.986 296.577 460.1C296.577 462.214 297.235 463.432 298.355 463.432ZM305.608 460.716C304.18 460.716 303.228 459.582 303.228 457.874C303.228 456.166 304.18 455.032 305.608 455.032C307.022 455.032 307.974 456.166 307.974 457.874C307.974 459.582 307.022 460.716 305.608 460.716ZM306 465L310.62 455.2H311.95L307.358 465H306ZM305.608 459.484C306.196 459.484 306.56 458.896 306.56 457.874C306.56 456.852 306.196 456.264 305.608 456.264C305.006 456.264 304.642 456.852 304.642 457.874C304.642 458.896 305.006 459.484 305.608 459.484ZM312.384 465.168C310.956 465.168 310.018 464.034 310.018 462.326C310.018 460.618 310.956 459.484 312.384 459.484C313.812 459.484 314.75 460.618 314.75 462.326C314.75 464.034 313.812 465.168 312.384 465.168ZM312.384 463.936C312.972 463.936 313.336 463.334 313.336 462.326C313.336 461.304 312.972 460.716 312.384 460.716C311.796 460.716 311.432 461.304 311.432 462.326C311.432 463.334 311.796 463.936 312.384 463.936ZM321.854 465V457.02H319.026V455.2H326.656V457.02H323.814V465H321.854ZM333.2 465L332.43 462.76H328.888L328.118 465H326.088L329.728 455.2H331.646L335.272 465H333.2ZM329.462 461.038H331.828L330.638 457.608L329.462 461.038ZM336.285 465V455.2H343.369V457.02H338.245V459.078H342.697V460.898H338.245V463.18H343.523V465H336.285Z" fill="#000529"/>
<path d="M293.987 467.212H344.013V468.57H293.987V467.212Z" fill="#000529"/>
<path d="M465 427H473L463 442V433H456L465 418V427ZM463 429V425.221L459.532 431H465V435.394L469.263 429H463Z" fill="#000529"/>
<path d="M419.026 465V455.2H420.384V465H419.026ZM422.676 465V455.2H423.978L429.172 462.774V455.2H430.446V465H429.158L423.95 457.426V465H422.676ZM436.127 465.154C433.747 465.154 432.249 464.076 432.137 461.962H433.495C433.579 463.25 434.433 463.894 436.127 463.894C437.611 463.894 438.479 463.432 438.479 462.326C438.479 461.514 438.031 461.122 436.547 460.772L435.217 460.478C433.201 460.002 432.417 459.232 432.417 457.776C432.417 456.166 433.635 455.046 435.889 455.046C437.975 455.046 439.361 455.984 439.557 457.986H438.199C438.059 456.768 437.247 456.306 435.889 456.306C434.531 456.306 433.775 456.726 433.775 457.678C433.775 458.504 434.181 458.896 435.595 459.218L436.925 459.526C439.011 460.016 439.837 460.8 439.837 462.27C439.837 464.132 438.367 465.154 436.127 465.154ZM443.535 465V456.46H440.525V455.2H447.903V456.46H444.893V465H443.535ZM454.898 465L453.932 462.368H449.914L448.962 465H447.562L451.258 455.2H452.616L456.312 465H454.898ZM450.362 461.136H453.484L451.916 456.838L450.362 461.136ZM457.54 465V455.2H458.842L464.036 462.774V455.2H465.31V465H464.022L458.814 457.426V465H457.54ZM469.73 465V456.46H466.72V455.2H474.098V456.46H471.088V465H469.73ZM479.707 452.274L478.405 454.248H477.327L478.307 452.274H479.707ZM481.093 465L480.127 462.368H476.109L475.157 465H473.757L477.453 455.2H478.811L482.507 465H481.093ZM476.557 461.136H479.679L478.111 456.838L476.557 461.136ZM483.735 465V455.2H485.037L490.231 462.774V455.2H491.505V465H490.217L485.009 457.426V465H483.735ZM493.797 465V455.2H500.475V456.46H495.155V459.344H499.789V460.604H495.155V463.74H500.643V465H493.797ZM508.628 465L507.662 462.368H503.644L502.692 465H501.292L504.988 455.2H506.346L510.042 465H508.628ZM504.092 461.136H507.214L505.646 456.838L504.092 461.136Z" fill="#000529"/>
</g>
<g filter="url(#filter2_dd_15115_13146)">
<rect x="3" y="685" width="70.2222" height="8" fill="#2A72DF"/>
<rect x="73.2227" y="685" width="70.2222" height="8" fill="#F0F2FF"/>
<rect x="143.445" y="685" width="70.2222" height="8" fill="#F0F2FF"/>
<rect x="213.668" y="685" width="70.2222" height="8" fill="#F0F2FF"/>
<rect x="283.891" y="685" width="70.2222" height="8" fill="#F0F2FF"/>
<rect x="354.109" y="685" width="70.2222" height="8" fill="#F0F2FF"/>
<rect x="424.332" y="685" width="70.2222" height="8" fill="#F0F2FF"/>
<rect x="494.555" y="685" width="70.2222" height="8" fill="#F0F2FF"/>
<rect x="564.777" y="685" width="70.2222" height="8" fill="#F0F2FF"/>
<rect width="632" height="88" transform="translate(3 693)" fill="white"/>
<rect x="43" y="709" width="552" height="56" rx="4" fill="#334BFF"/>
<path d="M283.16 744.22C279.24 744.22 276.66 741.32 276.66 736.98C276.66 732.74 279.28 729.78 283.2 729.78C286.24 729.78 288.42 731.54 289.24 734.44H287.2C286.5 732.5 285.16 731.58 283.2 731.58C280.36 731.58 278.6 733.66 278.6 737C278.6 740.34 280.36 742.42 283.2 742.42C285.2 742.42 286.56 741.46 287.22 739.4H289.22C288.44 742.42 286.24 744.22 283.16 744.22ZM295.3 744.22C292.5 744.22 290.64 742.2 290.64 739.08C290.64 735.98 292.5 733.96 295.3 733.96C298.1 733.96 299.94 735.98 299.94 739.08C299.94 742.2 298.1 744.22 295.3 744.22ZM295.3 742.54C297.04 742.54 298.06 741.34 298.06 739.08C298.06 736.82 297.04 735.64 295.3 735.64C293.54 735.64 292.52 736.82 292.52 739.08C292.52 741.34 293.54 742.54 295.3 742.54ZM302.238 744V734.18H304.018V735.46C304.778 734.4 305.658 733.96 307.018 733.96C309.298 733.96 310.438 735.24 310.438 738V744H308.578V738.16C308.578 736.4 307.998 735.66 306.598 735.66C304.818 735.66 304.098 736.86 304.098 738.86V744H302.238ZM316.273 744.16C314.293 744.16 313.613 743.16 313.613 741.56V735.86H312.193V734.18H313.613V731.3H315.473V734.18H317.593V735.86H315.473V741.16C315.473 742 315.673 742.46 316.733 742.46C317.073 742.46 317.293 742.42 317.593 742.36V744C317.153 744.1 316.713 744.16 316.273 744.16ZM319.444 732.24V730.3H321.444V732.24H319.444ZM319.504 744V734.18H321.364V744H319.504ZM324.367 744V734.18H326.147V735.46C326.907 734.4 327.787 733.96 329.147 733.96C331.427 733.96 332.567 735.24 332.567 738V744H330.707V738.16C330.707 736.4 330.127 735.66 328.727 735.66C326.947 735.66 326.227 736.86 326.227 738.86V744H324.367ZM338.721 744.2C336.461 744.2 335.321 742.92 335.321 740.16V734.18H337.181V740C337.181 741.76 337.761 742.5 339.161 742.5C340.841 742.5 341.561 741.3 341.561 739.3V734.18H343.421V744H341.641V742.68C340.941 743.76 340.061 744.2 338.721 744.2ZM349.118 744.22C347.098 744.22 345.878 743.26 345.878 741.46C345.878 739.48 347.558 738.8 349.618 738.44L352.238 737.98V737.62C352.238 736.04 351.478 735.56 350.158 735.56C348.818 735.56 348.138 736.04 347.978 737.16H346.118C346.278 735.06 347.958 733.96 350.198 733.96C352.738 733.96 354.098 735.08 354.098 737.92V744H352.298V742.64C351.438 743.84 350.558 744.22 349.118 744.22ZM349.578 742.64C350.998 742.64 352.238 741.7 352.238 740.26V739.48L350.178 739.84C348.678 740.1 347.718 740.3 347.718 741.36C347.718 742.22 348.278 742.64 349.578 742.64ZM356.984 744V734.18H358.764V735.84C359.304 734.64 360.244 734.08 361.364 734.08C361.564 734.08 361.824 734.1 362.024 734.16V735.92C361.724 735.88 361.564 735.86 361.304 735.86C359.644 735.86 358.844 737.02 358.844 739.32V744H356.984Z" fill="white"/>
</g>
<defs>
<filter id="filter0_d_15115_13146" x="1" y="0" width="636" height="60" filterUnits="userSpaceOnUse" color-interpolation-filters="sRGB">
<feFlood flood-opacity="0" result="BackgroundImageFix"/>
<feColorMatrix in="SourceAlpha" type="matrix" values="0 0 0 0 0 0 0 0 0 0 0 0 0 0 0 0 0 0 127 0" result="hardAlpha"/>
<feOffset dy="1"/>
<feGaussianBlur stdDeviation="1"/>
<feComposite in2="hardAlpha" operator="out"/>
<feColorMatrix type="matrix" values="0 0 0 0 0.0627451 0 0 0 0 0.0941176 0 0 0 0 0.156863 0 0 0 0.05 0"/>
<feBlend mode="normal" in2="BackgroundImageFix" result="effect1_dropShadow_15115_13146"/>
<feBlend mode="normal" in="SourceGraphic" in2="effect1_dropShadow_15115_13146" result="shape"/>
</filter>
<filter id="filter1_dd_15115_13146" x="16.5" y="184" width="605" height="336" filterUnits="userSpaceOnUse" color-interpolation-filters="sRGB">
<feFlood flood-opacity="0" result="BackgroundImageFix"/>
<feColorMatrix in="SourceAlpha" type="matrix" values="0 0 0 0 0 0 0 0 0 0 0 0 0 0 0 0 0 0 127 0" result="hardAlpha"/>
<feMorphology radius="2" operator="erode" in="SourceAlpha" result="effect1_dropShadow_15115_13146"/>
<feOffset dy="2"/>
<feGaussianBlur stdDeviation="2"/>
<feComposite in2="hardAlpha" operator="out"/>
<feColorMatrix type="matrix" values="0 0 0 0 0.0627451 0 0 0 0 0.0941176 0 0 0 0 0.156863 0 0 0 0.06 0"/>
<feBlend mode="normal" in2="BackgroundImageFix" result="effect1_dropShadow_15115_13146"/>
<feColorMatrix in="SourceAlpha" type="matrix" values="0 0 0 0 0 0 0 0 0 0 0 0 0 0 0 0 0 0 127 0" result="hardAlpha"/>
<feMorphology radius="2" operator="erode" in="SourceAlpha" result="effect2_dropShadow_15115_13146"/>
<feOffset dy="4"/>
<feGaussianBlur stdDeviation="4"/>
<feComposite in2="hardAlpha" operator="out"/>
<feColorMatrix type="matrix" values="0 0 0 0 0.0627451 0 0 0 0 0.0941176 0 0 0 0 0.156863 0 0 0 0.1 0"/>
<feBlend mode="normal" in2="effect1_dropShadow_15115_13146" result="effect2_dropShadow_15115_13146"/>
<feBlend mode="normal" in="SourceGraphic" in2="effect2_dropShadow_15115_13146" result="shape"/>
</filter>
<filter id="filter2_dd_15115_13146" x="0" y="681" width="638" height="102" filterUnits="userSpaceOnUse" color-interpolation-filters="sRGB">
<feFlood flood-opacity="0" result="BackgroundImageFix"/>
<feColorMatrix in="SourceAlpha" type="matrix" values="0 0 0 0 0 0 0 0 0 0 0 0 0 0 0 0 0 0 127 0" result="hardAlpha"/>
<feOffset dy="-1"/>
<feGaussianBlur stdDeviation="1"/>
<feComposite in2="hardAlpha" operator="out"/>
<feColorMatrix type="matrix" values="0 0 0 0 0.0627451 0 0 0 0 0.0941176 0 0 0 0 0.156863 0 0 0 0.06 0"/>
<feBlend mode="normal" in2="BackgroundImageFix" result="effect1_dropShadow_15115_13146"/>
<feColorMatrix in="SourceAlpha" type="matrix" values="0 0 0 0 0 0 0 0 0 0 0 0 0 0 0 0 0 0 127 0" result="hardAlpha"/>
<feOffset dy="-1"/>
<feGaussianBlur stdDeviation="1.5"/>
<feComposite in2="hardAlpha" operator="out"/>
<feColorMatrix type="matrix" values="0 0 0 0 0.0627451 0 0 0 0 0.0941176 0 0 0 0 0.156863 0 0 0 0.1 0"/>
<feBlend mode="normal" in2="effect1_dropShadow_15115_13146" result="effect2_dropShadow_15115_13146"/>
<feBlend mode="normal" in="SourceGraphic" in2="effect2_dropShadow_15115_13146" result="shape"/>
</filter>
<linearGradient id="paint0_linear_15115_13146" x1="-5.0947e-08" y1="80.3493" x2="790.867" y2="84.0181" gradientUnits="userSpaceOnUse">
<stop stop-color="#000F80"/>
<stop offset="1" stop-color="#0019D6"/>
</linearGradient>
<clipPath id="clip0_15115_13146">
<rect width="80" height="21.3333" fill="white" transform="translate(211 18.3333)"/>
</clipPath>
</defs>
</svg>
