<svg xmlns="http://www.w3.org/2000/svg" xmlns:xlink="http://www.w3.org/1999/xlink" xmlns:lucid="lucid" width="1440" height="780"><g transform="translate(0 0)" lucid:page-tab-id="0_0"><path d="M642.63 182.22V740.3" stroke="#000" stroke-width="2" fill="none"/><path d="M643.63 182.24h-2v-1.02h2z"/><path d="M642.63 740.26v1.03M1178.4 182.22l2.47 532.43" stroke="#000" stroke-width="2" fill="none"/><path d="M1179.4 182.24h-2v-1.02h2z"/><path d="M1180.87 714.63v1.02M108 211.93H624.1M108.02 211.93H107" stroke="#000" stroke-width="2" fill="none"/><path d="M639.4 211.93l-14.28 4.64v-9.27z" stroke="#000" stroke-width="2"/><path d="M537.94 100.85H747.3v80.37H537.95z" stroke="#000" stroke-opacity="0" stroke-width="2" fill="#fff" fill-opacity="0"/><use xlink:href="#a" transform="matrix(1,0,0,1,542.9402082401062,105.85237913062076) translate(23.549999999999997 39.1)"/><use xlink:href="#b" transform="matrix(1,0,0,1,542.9402082401062,105.85237913062076) translate(108.45 39.1)"/><path d="M138.45 210.95h482.2v52.73h-482.2z" stroke="#000" stroke-opacity="0" stroke-width="2" fill="#fff" fill-opacity="0"/><use xlink:href="#c" transform="matrix(1,0,0,1,143.4528534664391,215.95417481342182) translate(141.125 25.1)"/><use xlink:href="#d" transform="matrix(1,0,0,1,143.4528534664391,215.95417481342182) translate(222.075 25.1)"/><path d="M106.86 182.22l2.46 530.65" stroke="#000" stroke-width="2" fill="none"/><path d="M107.86 182.24h-2v-1.02h2z"/><path d="M109.32 712.84v1.03" stroke="#000" stroke-width="2" fill="none"/><path d="M2.17 100.85h209.37v80.37H2.17z" stroke="#000" stroke-opacity="0" stroke-width="2" fill="#fff" fill-opacity="0"/><use xlink:href="#e" transform="matrix(1,0,0,1,7.165046766621572,105.85237913062076) translate(61.074999999999996 39.1)"/><path d="M126.48 424.5h515.15" stroke="#000" stroke-width="2" fill="none"/><path d="M111.2 424.5l14.28-4.64v9.27z" stroke="#000" stroke-width="2"/><path d="M641.6 424.5h1.03M643.63 236.9h516.53M643.65 236.9h-1.02" stroke="#000" stroke-width="2" fill="none"/><path d="M1175.42 236.9l-14.26 4.62v-9.27z" stroke="#000" stroke-width="2"/><path d="M1208.66 263.68H1440v53h-231.34z" stroke="#000" stroke-opacity="0" stroke-width="2" fill="#fff" fill-opacity="0"/><use xlink:href="#f" transform="matrix(1,0,0,1,1213.6637385097251,268.67739054664844) translate(0 25.1)"/><use xlink:href="#g" transform="matrix(1,0,0,1,1213.6637385097251,268.67739054664844) translate(69.85000000000001 25.1)"/><use xlink:href="#h" transform="matrix(1,0,0,1,1213.6637385097251,268.67739054664844) translate(120.75000000000001 25.1)"/><path d="M661.13 397.8h517.27" stroke="#000" stroke-width="2" fill="none"/><path d="M645.86 397.8l14.27-4.64v9.27z" stroke="#000" stroke-width="2"/><path d="M1178.38 397.8h1.02" stroke="#000" stroke-width="2" fill="none"/><path d="M138.45 431.96h482.2v50.9h-482.2z" stroke="#000" stroke-opacity="0" stroke-width="2" fill="#fff" fill-opacity="0"/><use xlink:href="#i" transform="matrix(1,0,0,1,143.4528534664391,436.96142892123436) translate(128.675 24.1)"/><use xlink:href="#j" transform="matrix(1,0,0,1,143.4528534664391,436.96142892123436) translate(217.57500000000002 24.1)"/><use xlink:href="#k" transform="matrix(1,0,0,1,143.4528534664391,436.96142892123436) translate(298.425 24.1)"/><path d="M661.13 663.24h518.5" stroke="#000" stroke-width="2" fill="none"/><path d="M645.86 663.24l14.27-4.63v9.28z" stroke="#000" stroke-width="2"/><path d="M1179.6 663.24h1.03" stroke="#000" stroke-width="2" fill="none"/><path d="M1208.66 541.02H1440v54.6h-231.34z" stroke="#000" stroke-opacity="0" stroke-width="2" fill="#fff" fill-opacity="0"/><use xlink:href="#l" transform="matrix(1,0,0,1,1213.6637385097251,546.0169931170443) translate(0 26.1)"/><use xlink:href="#m" transform="matrix(1,0,0,1,1213.6637385097251,546.0169931170443) translate(28.900000000000002 26.1)"/><use xlink:href="#n" transform="matrix(1,0,0,1,1213.6637385097251,546.0169931170443) translate(86.75 26.1)"/><path d="M133.15 121.37c5.97-6.35 9.63-14.95 9.63-24.35 0-19.7-16.13-35.6-36.2-35.6-19.93 0-36.2 16-36.2 35.6 0 9.48 3.8 18 9.76 24.35h53z" stroke="#333a3e" stroke-width="2" fill="#f3dfc5"/><path d="M123.26 93.24l10.57 28.53 7.46-.24-10.18-34.07c-1.5-5-6.24-8.44-11.4-8.44H94.8c-5.42 0-10.03 3.45-11.52 8.44L73.1 121.53l7.45.24 10.57-28.53v-1.12l1.36 29.4h29.42l1.36-29.4v1.12z" stroke="#000" stroke-opacity="0" fill="#8498a6"/><path d="M127.05 103.13l.82 2.4h8.8l-.8-2.4h-8.82zM122.44 109.4h-30.5l.27 2.4h30.1l.14-2.4zM89.77 96.94H80.4l-.67 2.4h9.1l.94-2.4zM137.76 109.4h-8.4l.95 2.4h8.14l-.68-2.4z" stroke="#000" stroke-opacity="0" fill="#fff" fill-opacity=".5"/><path d="M87.46 103.13h-8.8l-.82 2.4h8.67l.96-2.4z" stroke="#333a3e" stroke-opacity=".5" fill="#fff" fill-opacity=".5"/><path d="M91.4 96.94l.13 2.4h31.45l.14-2.4H91.4zM122.7 105.54v-2.4H91.68l.13 2.4h30.9z" stroke="#000" stroke-opacity="0" fill="#fff" fill-opacity=".5"/><path d="M85.16 109.4h-8.4l-.7 2.4h8.15l.96-2.4z" stroke="#333a3e" stroke-opacity=".5" fill="#fff" fill-opacity=".5"/><path d="M122.17 115.6H92.34l.14 2.4h29.56l.13-2.4zM139.53 115.6h-7.87l.95 2.4h7.74l-.8-2.4z" stroke="#000" stroke-opacity="0" fill="#fff" fill-opacity=".5"/><path d="M82.85 115.6h-8l-.67 2.4h7.72l.95-2.4z" stroke="#333a3e" stroke-opacity=".5" fill="#fff" fill-opacity=".5"/><path d="M84.6 84.56c-.4.73-.8 1.6-1.2 2.5h47.58c-.27-.9-.67-1.77-1.22-2.5H84.6zM132.88 93.16l-.8-2.4H82.3l-.67 2.4h9.5v-1.04l.13 1.04h32v-1.04 1.04h9.62zM107.26 79.02H94.78c-2.3 0-4.47.64-6.23 1.85h37.55c-1.9-1.13-4.06-1.85-6.37-1.85h-12.47zM124.75 96.94l.8 2.4h9.23l-.8-2.4h-9.23z" stroke="#000" stroke-opacity="0" fill="#fff" fill-opacity=".5"/><path d="M141.42 121.53l-10.3-34.07c-1.5-5-6.1-8.44-11.4-8.44h-12.46" stroke="#333a3e" stroke-width="2" fill-opacity="0"/><path d="M73.1 121.53l10.16-34.07c1.5-5 6.24-8.44 11.52-8.44h12.48" stroke="#333a3e" stroke-width="2" fill-opacity="0"/><path d="M115.93 79.02c-1.9 2.73-5 4.42-8.54 4.42-3.53 0-6.65-1.77-8.4-4.42h16.93z" stroke="#333a3e" stroke-width="2" fill="#f3dbbb"/><path d="M121.9 121.53l1.36-29.4v1.1l10.7 28.54M80.55 121.77l10.57-28.53v-1.12l1.5 29.4M39.06 121.77h135.58" stroke="#333a3e" stroke-width="2" fill-opacity="0"/><path d="M119.05 55.55V68.8c0 6.6-5.42 11.83-11.93 11.83-6.78 0-12.07-5.3-12.07-11.82V55.4s0-6.76 12.07-6.76c0-.08.4 6.9 11.93 6.9z" stroke="#333a3e" fill="#f3ce9d"/><path d="M95.05 47.43V59s-.54-7.63 12.07-7.63c0 0 .68 7 11.93 7V47.5" stroke="#000" stroke-opacity="0" fill-opacity=".2"/><path d="M95.05 67.53c-2.03 0-3.66-1.7-3.66-3.78 0-2.17 1.62-3.78 3.65-3.78" stroke="#333a3e" fill="#f3ce9d"/><path d="M107.12 68.25c1.9 0 1.76-3.05 0-3.05v-4.5M104.82 59.4c-.95-.47-2.04-.8-3.26-.8-1.08 0-2.17.33-3.25.8M115.66 59.4c-.95-.47-2.03-.8-3.25-.8-1.08 0-2.16.33-3.1.8" stroke="#333a3e" stroke-width="2" fill-opacity="0"/><path d="M107.12 72.43c2.17 0 5.83-.9 5.83-.9s-1.5 4.76-5.83 4.76c-4.34 0-5.96-4.76-5.96-4.76s3.66.9 5.96.9z" stroke="#333a3e" stroke-width="2" fill="#ff9d9b"/><path d="M100.07 62.46v.24c0 .9.68 1.6 1.63 1.6.8 0 1.63-.7 1.63-1.6v-.24h-3.26zM110.92 62.46v.24c0 .9.68 1.6 1.62 1.6.95 0 1.63-.7 1.63-1.6v-.24h-3.25z" stroke="#000" stroke-opacity="0" fill="#333a3e"/><path d="M95.05 67.53c-2.03 0-3.66-1.7-3.66-3.78 0-2.17 1.62-3.78 3.65-3.78" stroke="#333a3e" stroke-width="2" fill-opacity="0"/><path d="M124.07 57.72l-1.5-5.54c-1.62-6.35-7.3-10.77-13.96-10.77h-8.4c-3.52 0-6.64 2.42-7.45 5.8L90.17 57.7c-.8 3.06 1.5 6.03 4.75 6.03h.13V55.4s0-6.76 11.94-6.76c0 0 .53 7 11.92 7v8.27h.13c3.4-.07 5.7-3.04 5.02-6.18z" stroke="#333a3e" stroke-width="2" fill="#9f96a8"/><path d="M119.05 67.53c2.04 0 3.66-1.7 3.66-3.78 0-2.17-1.6-3.78-3.65-3.78" stroke="#333a3e" fill="#f3ce9d"/><path d="M119.05 67.53c2.04 0 3.66-1.7 3.66-3.78 0-2.17-1.6-3.78-3.65-3.78M119.05 55.55V68.8c0 6.6-5.42 11.83-11.93 11.83-6.78 0-12.07-5.3-12.07-11.82V56.2" stroke="#333a3e" stroke-width="2" fill-opacity="0"/><path d="M67 103.05H89.2v18.56H67v-18.55z" stroke="#333a3e" stroke-width="2" fill="#d4c09e"/><path d="M82.72 105.54v-6.2c0-2.48-2.17-4.5-4.6-4.5-2.6 0-4.62 2.02-4.62 4.5v6.2" stroke="#333a3e" stroke-width="2" fill-opacity="0"/><path d="M83 113.17h-9.9c-.82 0-1.5-.72-1.5-1.44 0-.9.68-1.45 1.5-1.45H83c.94 0 1.48.64 1.48 1.45 0 .8-.54 1.44-1.5 1.44z" stroke="#000" stroke-opacity="0" fill="gray"/><path d="M1206.16 121.4c6.36-6.54 10.36-15.43 10.36-25.03 0-20.3-17.26-36.72-38.4-36.72-21.27 0-38.4 16.43-38.4 36.72 0 9.7 3.88 18.5 10.37 25.04h56.06z" stroke="#333a3e" stroke-width="2" fill="#c5e1ed"/><path d="M1175.22 83.9c-9.53 0-17.4-7.55-17.4-16.7 0-3.06.83-6.1 2.5-8.63-.43-1.52-.84-3.23-.84-4.93 0-9.16 7.87-16.6 17.4-16.6 3.32 0 6.35.9 8.98 2.4h.83c5.65 0 10.07 4.32 10.07 9.8v12.12c0 2.6.7 5.1 1.8 7.36 1.1 2.24 1.65 4.76 1.65 7.36 0 2.7-1.52 7.63-2.48 9.87" stroke="#333a3e" fill="#f8da7e"/><path d="M1200.36 76c0 2.6-1.52 7.53-2.62 9.86" stroke="#333a3e" stroke-width="2" fill-opacity="0"/><path d="M1191.52 121.5c-.97-8.43-.7-21 2.5-26.3l9.24 9.16 3.04 16.96v.18h5.8l-1.93-18.4-14.1-19.57c-1.23-1.9-3.3-2.96-5.65-2.96h-2.5c-1.78 0-3.3-1.44-3.3-3.14v-5.29h-13V77.44c0 1.7-1.5 3.14-3.44 3.14-3.6 0-7.04 1.7-9.12 4.58l-12.98 17.95-1.93 18.4h6.5l-.15-.18 3.04-16.78 8.56-9.34c3.04 5.3 3.46 17.87 2.5 26.3h26.92z" stroke="#000" stroke-opacity="0" fill="#e87271"/><path d="M1192.2 103.2c-1.1 5.83-1.23 13-.68 18.3h-27.07c.55-5.02.7-11.58 0-17.23" stroke="#333a3e" stroke-width="2" fill-opacity="0"/><path d="M1193.87 95.74c.4.9.55 1.88.55 2.96v-.1c0 4.32-3.73 7.9-8.28 7.9-4.42 0-8.15-3.58-8.15-7.9" stroke="#000" stroke-opacity="0" fill="#e87271"/><path d="M1162.24 96.1c-.4 1-.7 1.34-.7 2.5 0 4.32 3.74 7.9 8.3 7.9 4.56 0 8.28-3.58 8.28-7.9" stroke="#000" stroke-opacity="0" fill="#e87271"/><path d="M1211.96 121.5l-1.93-18.4-13.95-19.57c-1.24-1.8-3.45-2.96-5.66-2.96h-2.63M1168.18 80.57c-3.6 0-7.04 1.7-9.12 4.58l-12.98 17.95-1.93 18.4" stroke="#333a3e" stroke-width="2" fill-opacity="0"/><path d="M1150.5 121.4l2.9-16.77 8.98-8.8" stroke="#333a3e" stroke-width="2" fill-opacity="0"/><path d="M1194.42 99.33c0 4.3-3.73 7.9-8.28 7.9M1169.84 107.23c-4.56 0-8.3-3.6-8.3-7.9" stroke="#333a3e" stroke-width="2" fill="#e87271"/><path d="M1194.42 99.42c0-1.08-.14-2.07-.55-2.96M1162.24 96.1c-.4 1-.7 2.06-.7 3.23" stroke="#333a3e" stroke-width="2" fill="#cce3ed"/><path d="M1206.3 121.4l-3.04-16.95-9.67-8.62" stroke="#333a3e" stroke-width="2" fill-opacity="0"/><path d="M1202.57 121.5l4.84-.53c.7-.1 1.1-.72 1.1-1.44-.13-.63-.82-1.08-1.37-1l-3.87.46c-.97.17-1.66.98-1.52 1.97.14.26.55.62.83.53z" stroke="#333a3e" fill="#f3ce9d"/><path d="M1204.92 118.9v1.7c0 .63.55 1.17 1.24 1.17h.14c.55 0 1.24-.54 1.24-1.16V118c0-.45-.4-.8-.83-.8-1.1 0-1.78.7-1.78 1.7z" stroke="#333a3e" fill="#f3ce9d"/><path d="M1207.54 117.46v3.15c0 .63.56 1.17 1.25 1.17.68 0 1.23-.54 1.23-1.16v-3.14c0-.53-.42-.98-.97-.98h-.55c-.68 0-.96.45-.96.98zM1210.03 117.28v3.33c0 .63.55 1.17 1.24 1.17.83 0 1.25-.54 1.25-1.16v-3.32c0-.44-.42-.98-.97-.98h-.42c-.7 0-1.1.45-1.1.98zM1212.65 117.82v2.7c0 .7.56 1.16 1.25 1.16.7 0 1.24-.54 1.24-1.16v-1.98c0-.8-.7-1.35-1.38-1.35h-.42c-.4 0-.7.35-.7.62zM1153.54 121.5l-4.83-.53c-.68-.1-1.24-.72-1.1-1.44 0-.63.7-1.08 1.38-1l3.87.46c.97.17 1.66.98 1.52 1.97 0 .26-.42.62-.83.53z" stroke="#333a3e" fill="#f3ce9d"/><path d="M1151.2 118.9v1.7c0 .63-.56 1.17-1.25 1.17-.7 0-1.38-.54-1.38-1.16V118c0-.45.4-.8.83-.8 1.1 0 1.8.7 1.8 1.7z" stroke="#333a3e" fill="#f3ce9d"/><path d="M1148.7 117.46v3.15c0 .63-.55 1.17-1.24 1.17-.83 0-1.24-.54-1.24-1.16v-3.14c0-.53.4-.98.97-.98h.54c.55 0 .97.45.97.98zM1146.08 117.28v3.33c0 .63-.55 1.17-1.24 1.17-.7 0-1.24-.54-1.24-1.16v-3.32c0-.44.4-.98.96-.98h.55c.57 0 .98.45.98.98z" stroke="#333a3e" fill="#f3ce9d"/><path d="M1143.6 117.82v2.7c0 .7-.56 1.16-1.25 1.16-.83 0-1.24-.54-1.24-1.16v-1.98c0-.8.56-1.35 1.4-1.35h.27c.4 0 .83.35.83.62z" stroke="#333a3e" fill="#f3ce9d"/><path d="M1171.63 72.22v5.21c0 1.8-1.52 3.23-3.45 3.23M1187.93 80.57c-1.93 0-3.3-1.44-3.3-3.14v-5.29M1109.34 121.6h138.12" stroke="#333a3e" stroke-width="2" fill-opacity="0"/><path d="M1178.68 90.98c-6.77 0-12.57 3.6-15.47 8.9 1.67 6.45 2.08 15.34 1.25 21.62h27.2c-.82-6.73-.27-16.7 1.67-23.07-3.32-4.5-8.57-7.45-14.64-7.45z" stroke="#333a3e" stroke-width="2" fill="#d4cbbd"/><path d="M1165.97 80.03l.14 18.5c0 1.7 1.53 3.13 3.2 3.13V80.03h-3.33zM1186.83 79.94v21.63c1.8 0 3.3-1.34 3.3-3.05V79.85l-3.3.1z" stroke="#333a3e" stroke-width="2" fill="#d4cbbd"/><path d="M1191.1 62.97s3.18-1.88 3.18-6.1c0 0 .14-2.34-3.17-2.34" stroke="#333a3e" stroke-width="2" fill-opacity="0"/><path d="M1191.1 62.97s3.18-2.15 3.18-6.1c0 0 .14-2.34-3.17-2.34M1183.8 47.53c0 3.95 3.3 7.1 7.3 7.1V65.4c0 6.46-7.3 11.85-12.56 11.85-5.1 0-12.57-5.3-12.57-11.85v-7c0-3.87 3.45-8.45 10.77-8.45 7.2 0 8.84-4.84 8.84-4.84" stroke="#333a3e" fill="#f3dbbb"/><path d="M1174.53 69.88c.28 1.7 1.94 2.7 3.87 2.7 1.93 0 3.6-1 3.87-2.7h-7.74z" stroke="#333a3e" fill="#ff9d9b"/><path d="M1157.82 67.2c0 9.15 7.87 16.6 17.4 16.6 0 0 1.8-5.3-3.3-8.98" stroke="#333a3e" fill="#f8da7e"/><path d="M1183.23 48.52s-1.24 7.18 8.15 8.17c0 0 2.5.17 2.5 1.7 0 0 .96-3.78-1.12-3.78-2.07 0-8.97-1.8-8.97-6.2h-.57z" stroke="#333a3e" stroke-opacity=".2" fill-opacity=".2"/><path d="M1177.02 63.87s.14 1.17 1.93 1.17" stroke="#333a3e" stroke-width="2" fill-opacity="0"/><path d="M1174.4 60v-.26c0-.9-.7-1.62-1.66-1.62-.83 0-1.66.72-1.66 1.62V60h3.32z" stroke="#000" stroke-opacity="0" fill="#333a3e"/><path d="M1178.95 60.46c0 1.97-1.93 3.4-1.93 3.4" stroke="#333a3e" stroke-width="2" fill-opacity="0"/><path d="M1178.68 69.44c0 .53-.56.7-1.1.7-.7 0-1.25-.17-1.25-.7 0-.54.55-1.08 1.24-1.08.55 0 1.1.54 1.1 1.08z" stroke="#000" stroke-opacity="0" fill="#5e506c"/><path d="M1180.2 69.44c0 .53-.42.7-1.1.7-.56 0-1.1-.17-1.1-.7 0-.54.54-1.08 1.1-1.08.68 0 1.1.54 1.1 1.08z" stroke="#000" stroke-opacity="0" fill="#5e506c"/><path d="M1174.8 55.88s-1.37-.27-3.03-.9c-1.38-.36-2.48.9-2.48.9" stroke="#333a3e" stroke-width="2" fill-opacity="0"/><path d="M1182.68 60v-.26c0-.9.83-1.62 1.66-1.62s1.66.72 1.66 1.62V60h-3.32z" stroke="#000" stroke-opacity="0" fill="#333a3e"/><path d="M1182.27 55.88s1.38-.27 3.04-.9c1.4-.36 2.5.9 2.5.9M1186.83 39.36c5.66 0 10.08 4.3 10.08 9.7M1183.8 47.53c0 3.95 3.3 7.1 7.3 7.1M1186.7 39.36s-2.08 0-3.47 1.53M1177.02 63.87s.14 1.17 1.93 1.17" stroke="#333a3e" stroke-width="2" fill-opacity="0"/><path d="M1178.68 69.53c0 .8-.7 1.07-1.52 1.07-.97 0-1.52-.27-1.52-1.07 0-.9.55-1.53 1.52-1.53.83 0 1.52.72 1.52 1.53z" stroke="#000" stroke-opacity="0" fill="#fc7c7b"/><path d="M1181.02 69.53c0 .8-.55 1.07-1.5 1.07-.84 0-1.53-.27-1.53-1.07 0-.9.68-1.53 1.5-1.53.97 0 1.52.72 1.52 1.53z" stroke="#000" stroke-opacity="0" fill="#fc7c7b"/><path d="M1174.53 69.88c.28 1.7 1.94 2.7 3.87 2.7 1.93 0 3.6-1 3.87-2.7h-7.74zM1178.95 60.46c0 1.97-1.93 3.4-1.93 3.4M1159.48 53.64c0-9.16 7.87-16.7 17.4-16.7 3.32 0 6.35.9 8.98 2.42" stroke="#333a3e" stroke-width="2" fill-opacity="0"/><path d="M1166.38 59.02s.28-6.9 8.43-6.9c4.02 0 6.78-.2 8.57-3.33.14-.2.7-.64.7-.64l-.7-.63s-1.93 1.98-7.73 1.98c-5.94 0-9.26 4.85-9.26 9.52z" stroke="#333a3e" stroke-opacity=".2" fill-opacity=".2"/><path d="M1182.68 67.46c0 .27-.27.54-.7.54-.26 0-.54-.27-.54-.54 0-.36.28-.63.55-.63.4 0 .68.27.68.63z" stroke="#000" stroke-opacity="0" fill="#5e506c"/><path d="M1183.8 47.53c0 3.95 3.3 7.1 7.3 7.1M1159.48 53.55c0 3.23.97 6.28 2.76 8.88M1196.9 49.06v12.12M1198.57 68.54c-1.1-2.25-1.66-4.76-1.66-7.36" stroke="#333a3e" stroke-width="2" fill-opacity="0"/><path d="M1160.3 58.57c-1.5 2.52-2.48 5.48-2.48 8.62 0 9.15 7.74 16.7 17.4 16.7 0 0 1.8-5.3-3.45-9M1191.1 62.97s3.18-1.43 3.18-6.1c0 0 .14-2.34-3.17-2.34M1165.97 58.4c0-3.87 3.45-8.45 10.77-8.45 7.2 0 8.84-4.84 8.84-4.84" stroke="#333a3e" stroke-width="2" fill-opacity="0"/><path d="M1191.1 55.25V65.4c0 6.46-7.45 11.85-12.56 11.85-5.25 0-12.7-5.3-12.7-11.85v-7" stroke="#333a3e" stroke-width="2" fill-opacity="0"/><path d="M1182.68 67.46c0 .27-.27.54-.7.54-.26 0-.54-.27-.54-.54 0-.36.28-.63.55-.63.4 0 .68.27.68.63z" stroke="#000" stroke-opacity="0" fill="#333a3e"/><path d="M1198.57 68.54c1.1 2.33 1.8 4.76 1.8 7.45" stroke="#333a3e" stroke-width="2" fill-opacity="0"/><path d="M1189.04 42.4l-22.1.1c-.42 0-.97-.1-1.38-.27-2.08-.8-3.04-3.05-1.94-4.93 1.94-3.32 5.8-5.48 9.95-5.3l13.26.54c2.76-.27 5.24 1.7 5.66 4.4l.13 1.52c.27 2.16-1.38 3.95-3.6 3.95z" stroke="#333a3e" stroke-width="2" fill="#d4cbbd"/><path d="M1194.97 42.95l-27.34 2.6c-3.32.28-6.08-1.88-6.36-4.84l33.15-3.22.55 5.47z" stroke="#333a3e" stroke-width="2" fill="#d4cbbd"/><path d="M1131.3 113.42h4v7.9h-4v-7.9z" stroke="#333a3e" fill="#fff"/><path d="M1133.37 116.75c0 1.43-.13 2.96-1.93 2.96-1.93 0-2.2-2.06-3.73-2.06-1.5 0-1.92 1.7-1.92 3.77" stroke="#333a3e" fill-opacity="0"/><path d="M1133.37 115.3v1.45" stroke="#333a3e" stroke-width="2" fill-opacity="0"/><path d="M1123.98 114.32c0 .54.42 1 .97 1h16.57c.7 0 1.1-.46 1.1-1V96.64c0-.54-.4-1-1.1-1h-16.57c-.55 0-.97.46-.97 1v17.68z" stroke="#333a3e" stroke-width="1.5" fill="#fff"/><path d="M1133.93 113.7c0 .35-.28.62-.56.62-.4 0-.7-.27-.7-.63 0-.37.3-.63.7-.63.28 0 .56.26.56.62z" stroke="#000" stroke-opacity="0" fill="#333a3e"/><path d="M1130.6 103.64l1.95 2.24 3.17-5.38" stroke="#333a3e" stroke-width="2" fill-opacity="0"/><path d="M643 42.67c-.2 0-.28.08-.5.08-.08.08-.15.08-.3.08-.07 0-.07 0-.14.08H642c-.53.17-.9.33-1.26.57l-.14.16c-.95.65-1.6 1.53-1.9 2.74l-11.48 27.56c2.7 1.7 5.77 2.98 9.06 3.78l7.1-16.95 7.74 19.85c-2.48.57-5.04.8-7.67.8-11.55 0-21.64-5.7-27.7-14.54-1.1-1.53-2.8-2.33-4.62-2.1-.87.1-1.53.4-2.26.9-2.12 1.52-2.63 4.58-1.03 6.75 7.83 11.26 20.84 18.65 35.6 18.65 3.88 0 7.6-.56 11.2-1.53l11.76 30.14c.08.16.15.32.22.56 1.17 2.4 4.1 3.54 6.58 2.33 2.5-1.12 3.5-4.1 2.34-6.5l-11.7-30.06c6.14-3.23 11.34-7.97 15.28-13.6 1.54-2.24 1.03-5.22-1.17-6.75-2.2-1.52-5.2-.96-6.72 1.2-2.85 4.2-6.58 7.65-10.97 10.14L648.2 46.12c-.07-.25-.22-.5-.37-.73v-.08c-.14-.32-.3-.48-.5-.72v-.16c-.15-.08-.23-.16-.3-.24l-.07-.08c-.08-.08-.22-.16-.3-.24 0-.08-.07-.08-.07-.17-.16 0-.23-.07-.3-.15-.22-.16-.37-.24-.5-.32-.16-.08-.3-.08-.38-.16h-.15c-.07-.08-.2-.08-.36-.16-.14 0-.28-.07-.43-.15-.36-.08-.66-.08-.95-.08h-.5zm-21.78 45.57l-3.8 9.24c-.07.08-.14.24-.14.32-.95 2.57.3 5.4 2.85 6.35 2.56.96 5.4-.32 6.36-2.9l3.8-9.32c-3.16-.88-6.23-2.17-9.08-3.7z" stroke="#000" stroke-opacity="0" stroke-width="5.2" fill="#267bbd"/><path d="M680 667.1h321.47v66.14H680z" stroke="#000" stroke-opacity="0" stroke-width="2" fill="#fff" fill-opacity="0"/><use xlink:href="#o" transform="matrix(1,0,0,1,685.0000000000002,672.1054810086849) translate(0 24.307291666666664)"/><use xlink:href="#p" transform="matrix(1,0,0,1,685.0000000000002,672.1054810086849) translate(0 45.00173611111111)"/><use xlink:href="#q" transform="matrix(1,0,0,1,685.0000000000002,672.1054810086849) translate(21.40625 45.00173611111111)"/><use xlink:href="#r" transform="matrix(1,0,0,1,685.0000000000002,672.1054810086849) translate(128.4375 45.00173611111111)"/><use xlink:href="#s" transform="matrix(1,0,0,1,685.0000000000002,672.1054810086849) translate(181.953125 45.00173611111111)"/><path d="M680 501.23h459.93V635.4H680z" stroke="#000" stroke-opacity="0" stroke-width="2" fill="#fff" fill-opacity="0"/><g><use xlink:href="#t" transform="matrix(1,0,0,1,685.0000000000002,506.2328741829029) translate(0 16.918402777777782)"/><use xlink:href="#u" transform="matrix(1,0,0,1,685.0000000000002,506.2328741829029) translate(53.34201388888889 16.918402777777782)"/><use xlink:href="#v" transform="matrix(1,0,0,1,685.0000000000002,506.2328741829029) translate(0 37.61284722222223)"/><use xlink:href="#w" transform="matrix(1,0,0,1,685.0000000000002,506.2328741829029) translate(32.005208333333336 37.61284722222223)"/><use xlink:href="#x" transform="matrix(1,0,0,1,685.0000000000002,506.2328741829029) translate(117.35243055555557 37.61284722222223)"/><use xlink:href="#y" transform="matrix(1,0,0,1,685.0000000000002,506.2328741829029) translate(160.02604166666669 37.61284722222223)"/><use xlink:href="#z" transform="matrix(1,0,0,1,685.0000000000002,506.2328741829029) translate(202.6996527777778 37.61284722222223)"/><use xlink:href="#A" transform="matrix(1,0,0,1,685.0000000000002,506.2328741829029) translate(0 58.30729166666667)"/><use xlink:href="#B" transform="matrix(1,0,0,1,685.0000000000002,506.2328741829029) translate(0 79.00173611111111)"/><use xlink:href="#C" transform="matrix(1,0,0,1,685.0000000000002,506.2328741829029) translate(21.336805555555557 79.00173611111111)"/><use xlink:href="#D" transform="matrix(1,0,0,1,685.0000000000002,506.2328741829029) translate(128.02083333333331 79.00173611111111)"/><use xlink:href="#B" transform="matrix(1,0,0,1,685.0000000000002,506.2328741829029) translate(0 99.69618055555556)"/><use xlink:href="#E" transform="matrix(1,0,0,1,685.0000000000002,506.2328741829029) translate(21.336805555555557 99.69618055555556)"/><use xlink:href="#F" transform="matrix(1,0,0,1,685.0000000000002,506.2328741829029) translate(202.69965277777771 99.69618055555556)"/><use xlink:href="#G" transform="matrix(1,0,0,1,685.0000000000002,506.2328741829029) translate(0 120.390625)"/></g><path d="M643.63 503.76h517.76M643.65 503.76h-1.02" stroke="#000" stroke-width="2" fill="none"/><path d="M1176.66 503.76l-14.27 4.64v-9.27z" stroke="#000" stroke-width="2"/><path d="M680 403.4h321.47v66.13H680z" stroke="#000" stroke-opacity="0" stroke-width="2" fill="#fff" fill-opacity="0"/><g><use xlink:href="#o" transform="matrix(1,0,0,1,685.0000000000002,408.38969749757234) translate(0 24.307291666666664)"/><use xlink:href="#p" transform="matrix(1,0,0,1,685.0000000000002,408.38969749757234) translate(0 45.00173611111111)"/><use xlink:href="#q" transform="matrix(1,0,0,1,685.0000000000002,408.38969749757234) translate(21.40625 45.00173611111111)"/><use xlink:href="#r" transform="matrix(1,0,0,1,685.0000000000002,408.38969749757234) translate(128.4375 45.00173611111111)"/><use xlink:href="#s" transform="matrix(1,0,0,1,685.0000000000002,408.38969749757234) translate(181.953125 45.00173611111111)"/></g><path d="M680 236.9h482.2v133.36H680z" stroke="#000" stroke-opacity="0" stroke-width="2" fill="#fff" fill-opacity="0"/><g><use xlink:href="#H" transform="matrix(1,0,0,1,685.0000000000002,241.8886324729741) translate(0 16.50173611111111)"/><use xlink:href="#I" transform="matrix(1,0,0,1,685.0000000000002,241.8886324729741) translate(53.515625 16.50173611111111)"/><use xlink:href="#J" transform="matrix(1,0,0,1,685.0000000000002,241.8886324729741) translate(0 37.19618055555556)"/><use xlink:href="#K" transform="matrix(1,0,0,1,685.0000000000002,241.8886324729741) translate(32.109375 37.19618055555556)"/><use xlink:href="#L" transform="matrix(1,0,0,1,685.0000000000002,241.8886324729741) translate(117.734375 37.19618055555556)"/><use xlink:href="#M" transform="matrix(1,0,0,1,685.0000000000002,241.8886324729741) translate(160.546875 37.19618055555556)"/><use xlink:href="#N" transform="matrix(1,0,0,1,685.0000000000002,241.8886324729741) translate(203.359375 37.19618055555556)"/><use xlink:href="#O" transform="matrix(1,0,0,1,685.0000000000002,241.8886324729741) translate(0 57.890625)"/><use xlink:href="#P" transform="matrix(1,0,0,1,685.0000000000002,241.8886324729741) translate(0 78.58506944444444)"/><use xlink:href="#q" transform="matrix(1,0,0,1,685.0000000000002,241.8886324729741) translate(21.40625 78.58506944444444)"/><use xlink:href="#Q" transform="matrix(1,0,0,1,685.0000000000002,241.8886324729741) translate(128.4375 78.58506944444444)"/><use xlink:href="#P" transform="matrix(1,0,0,1,685.0000000000002,241.8886324729741) translate(0 99.27951388888889)"/><use xlink:href="#R" transform="matrix(1,0,0,1,685.0000000000002,241.8886324729741) translate(21.40625 99.27951388888889)"/><use xlink:href="#S" transform="matrix(1,0,0,1,685.0000000000002,241.8886324729741) translate(203.359375 99.27951388888889)"/><use xlink:href="#T" transform="matrix(1,0,0,1,685.0000000000002,241.8886324729741) translate(0 119.97395833333333)"/></g><path d="M1073.72 100.85h209.37v80.37H1073.7z" stroke="#000" stroke-opacity="0" stroke-width="2" fill="#fff" fill-opacity="0"/><g><use xlink:href="#U" transform="matrix(1,0,0,1,1078.715369713591,105.85237913062076) translate(62.55 39.1)"/></g><defs><path d="M205 0l-28-72H64L36 0H1l101-248h38L239 0h-34zm-38-99l-47-123c-12 45-31 82-46 123h93" id="V"/><path d="M115-194c55 1 70 41 70 98S169 2 115 4C84 4 66-9 55-30l1 105H24l-1-265h31l2 30c10-21 28-34 59-34zm-8 174c40 0 45-34 45-75s-6-73-45-74c-42 0-51 32-51 76 0 43 10 73 51 73" id="W"/><path d="M24 0v-261h32V0H24" id="X"/><path d="M141-36C126-15 110 5 73 4 37 3 15-17 15-53c-1-64 63-63 125-63 3-35-9-54-41-54-24 1-41 7-42 31l-33-3c5-37 33-52 76-52 45 0 72 20 72 64v82c-1 20 7 32 28 27v20c-31 9-61-2-59-35zM48-53c0 20 12 33 32 33 41-3 63-29 60-74-43 2-92-5-92 41" id="Y"/><path d="M9 0v-24l116-142H16v-24h144v24L44-24h123V0H9" id="Z"/><path d="M210-169c-67 3-38 105-44 169h-31v-121c0-29-5-50-35-48C34-165 62-65 56 0H25l-1-190h30c1 10-1 24 2 32 10-44 99-50 107 0 11-21 27-35 58-36 85-2 47 119 55 194h-31v-121c0-29-5-49-35-48" id="aa"/><path d="M100-194c63 0 86 42 84 106H49c0 40 14 67 53 68 26 1 43-12 49-29l28 8c-11 28-37 45-77 45C44 4 14-33 15-96c1-61 26-98 85-98zm52 81c6-60-76-77-97-28-3 7-6 17-6 28h103" id="ab"/><g id="a"><use transform="matrix(0.05,0,0,0.05,0,0)" xlink:href="#V"/><use transform="matrix(0.05,0,0,0.05,12,0)" xlink:href="#W"/><use transform="matrix(0.05,0,0,0.05,22,0)" xlink:href="#X"/><use transform="matrix(0.05,0,0,0.05,25.950000000000003,0)" xlink:href="#Y"/><use transform="matrix(0.05,0,0,0.05,35.95,0)" xlink:href="#Z"/><use transform="matrix(0.05,0,0,0.05,44.95,0)" xlink:href="#Y"/><use transform="matrix(0.05,0,0,0.05,54.95,0)" xlink:href="#aa"/><use transform="matrix(0.05,0,0,0.05,69.9,0)" xlink:href="#ab"/></g><path d="M115-194c53 0 69 39 70 98 0 66-23 100-70 100C84 3 66-7 56-30L54 0H23l1-261h32v101c10-23 28-34 59-34zm-8 174c40 0 45-34 45-75 0-40-5-75-45-74-42 0-51 32-51 76 0 43 10 73 51 73" id="ac"/><path d="M96-169c-40 0-48 33-48 73s9 75 48 75c24 0 41-14 43-38l32 2c-6 37-31 61-74 61-59 0-76-41-82-99-10-93 101-131 147-64 4 7 5 14 7 22l-32 3c-4-21-16-35-41-35" id="ad"/><path d="M143 0L79-87 56-68V0H24v-261h32v163l83-92h37l-77 82L181 0h-38" id="ae"/><path d="M117-194c89-4 53 116 60 194h-32v-121c0-31-8-49-39-48C34-167 62-67 57 0H25l-1-190h30c1 10-1 24 2 32 11-22 29-35 61-36" id="af"/><path d="M85-194c31 0 48 13 60 33l-1-100h32l1 261h-30c-2-10 0-23-3-31C134-8 116 4 85 4 32 4 16-35 15-94c0-66 23-100 70-100zm9 24c-40 0-46 34-46 75 0 40 6 74 45 74 42 0 51-32 51-76 0-42-9-74-50-73" id="ag"/><g id="b"><use transform="matrix(0.05,0,0,0.05,0,0)" xlink:href="#ac"/><use transform="matrix(0.05,0,0,0.05,10,0)" xlink:href="#Y"/><use transform="matrix(0.05,0,0,0.05,20,0)" xlink:href="#ad"/><use transform="matrix(0.05,0,0,0.05,29,0)" xlink:href="#ae"/><use transform="matrix(0.05,0,0,0.05,38,0)" xlink:href="#ab"/><use transform="matrix(0.05,0,0,0.05,48,0)" xlink:href="#af"/><use transform="matrix(0.05,0,0,0.05,58,0)" xlink:href="#ag"/></g><path d="M212-179c-10-28-35-45-73-45-59 0-87 40-87 99 0 60 29 101 89 101 43 0 62-24 78-52l27 14C228-24 195 4 139 4 59 4 22-46 18-125c-6-104 99-153 187-111 19 9 31 26 39 46" id="ah"/><path d="M106-169C34-169 62-67 57 0H25v-261h32l-1 103c12-21 28-36 61-36 89 0 53 116 60 194h-32v-121c2-32-8-49-39-48" id="ai"/><path d="M100-194c62-1 85 37 85 99 1 63-27 99-86 99S16-35 15-95c0-66 28-99 85-99zM99-20c44 1 53-31 53-75 0-43-8-75-51-75s-53 32-53 75 10 74 51 75" id="aj"/><path d="M84 4C-5 8 30-112 23-190h32v120c0 31 7 50 39 49 72-2 45-101 50-169h31l1 190h-30c-1-10 1-25-2-33-11 22-28 36-60 37" id="ak"/><path d="M59-47c-2 24 18 29 38 22v24C64 9 27 4 27-40v-127H5v-23h24l9-43h21v43h35v23H59v120" id="al"/><g id="c"><use transform="matrix(0.05,0,0,0.05,0,0)" xlink:href="#ah"/><use transform="matrix(0.05,0,0,0.05,12.950000000000001,0)" xlink:href="#ai"/><use transform="matrix(0.05,0,0,0.05,22.950000000000003,0)" xlink:href="#ab"/><use transform="matrix(0.05,0,0,0.05,32.95,0)" xlink:href="#ad"/><use transform="matrix(0.05,0,0,0.05,41.95,0)" xlink:href="#ae"/><use transform="matrix(0.05,0,0,0.05,50.95,0)" xlink:href="#aj"/><use transform="matrix(0.05,0,0,0.05,60.95,0)" xlink:href="#ak"/><use transform="matrix(0.05,0,0,0.05,70.95,0)" xlink:href="#al"/></g><path d="M114-163C36-179 61-72 57 0H25l-1-190h30c1 12-1 29 2 39 6-27 23-49 58-41v29" id="am"/><path d="M24-231v-30h32v30H24zM24 0v-190h32V0H24" id="an"/><path d="M16-82v-28h88v28H16" id="ao"/><path d="M145-31C134-9 116 4 85 4 32 4 16-35 15-94c0-59 17-99 70-100 32-1 48 14 60 33 0-11-1-24 2-32h30l-1 268h-32zM93-21c41 0 51-33 51-76s-8-73-50-73c-40 0-46 35-46 75s5 74 45 74" id="ap"/><path d="M135-143c-3-34-86-38-87 0 15 53 115 12 119 90S17 21 10-45l28-5c4 36 97 45 98 0-10-56-113-15-118-90-4-57 82-63 122-42 12 7 21 19 24 35" id="aq"/><g id="d"><use transform="matrix(0.05,0,0,0.05,0,0)" xlink:href="#ad"/><use transform="matrix(0.05,0,0,0.05,9,0)" xlink:href="#am"/><use transform="matrix(0.05,0,0,0.05,14.949999999999998,0)" xlink:href="#ab"/><use transform="matrix(0.05,0,0,0.05,24.95,0)" xlink:href="#ag"/><use transform="matrix(0.05,0,0,0.05,34.95,0)" xlink:href="#an"/><use transform="matrix(0.05,0,0,0.05,38.900000000000006,0)" xlink:href="#al"/><use transform="matrix(0.05,0,0,0.05,43.900000000000006,0)" xlink:href="#ao"/><use transform="matrix(0.05,0,0,0.05,49.85000000000001,0)" xlink:href="#am"/><use transform="matrix(0.05,0,0,0.05,55.80000000000001,0)" xlink:href="#ab"/><use transform="matrix(0.05,0,0,0.05,65.80000000000001,0)" xlink:href="#ap"/><use transform="matrix(0.05,0,0,0.05,75.80000000000001,0)" xlink:href="#ak"/><use transform="matrix(0.05,0,0,0.05,85.80000000000001,0)" xlink:href="#ab"/><use transform="matrix(0.05,0,0,0.05,95.80000000000001,0)" xlink:href="#aq"/><use transform="matrix(0.05,0,0,0.05,104.80000000000001,0)" xlink:href="#al"/></g><g id="e"><use transform="matrix(0.05,0,0,0.05,0,0)" xlink:href="#ah"/><use transform="matrix(0.05,0,0,0.05,12.950000000000001,0)" xlink:href="#ak"/><use transform="matrix(0.05,0,0,0.05,22.950000000000003,0)" xlink:href="#aq"/><use transform="matrix(0.05,0,0,0.05,31.950000000000003,0)" xlink:href="#al"/><use transform="matrix(0.05,0,0,0.05,36.95,0)" xlink:href="#aj"/><use transform="matrix(0.05,0,0,0.05,46.95,0)" xlink:href="#aa"/><use transform="matrix(0.05,0,0,0.05,61.900000000000006,0)" xlink:href="#ab"/><use transform="matrix(0.05,0,0,0.05,71.9,0)" xlink:href="#am"/></g><path d="M182-130c37 4 62 22 62 59C244 23 116-4 24 0v-248c84 5 203-23 205 63 0 31-19 50-47 55zM76-148c40-3 101 13 101-30 0-44-60-28-101-31v61zm0 110c48-3 116 14 116-37 0-48-69-32-116-35v72" id="ar"/><path d="M133-34C117-15 103 5 69 4 32 3 11-16 11-54c-1-60 55-63 116-61 1-26-3-47-28-47-18 1-26 9-28 27l-52-2c7-38 36-58 82-57s74 22 75 68l1 82c-1 14 12 18 25 15v27c-30 8-71 5-69-32zm-48 3c29 0 43-24 42-57-32 0-66-3-65 30 0 17 8 27 23 27" id="as"/><path d="M190-63c-7 42-38 67-86 67-59 0-84-38-90-98-12-110 154-137 174-36l-49 2c-2-19-15-32-35-32-30 0-35 28-38 64-6 74 65 87 74 30" id="at"/><path d="M147 0L96-86 75-71V0H25v-261h50v150l67-79h53l-66 74L201 0h-54" id="au"/><path d="M85 4C-2 5 27-109 22-190h50c7 57-23 150 33 157 60-5 35-97 40-157h50l1 190h-47c-2-12 1-28-3-38-12 25-28 42-61 42" id="av"/><path d="M135-194c53 0 70 44 70 98 0 56-19 98-73 100-31 1-45-17-59-34 3 33 2 69 2 105H25l-1-265h48c2 10 0 23 3 31 11-24 29-35 60-35zM114-30c33 0 39-31 40-66 0-38-9-64-40-64-56 0-55 130 0 130" id="aw"/><g id="f"><use transform="matrix(0.05,0,0,0.05,0,0)" xlink:href="#ar"/><use transform="matrix(0.05,0,0,0.05,12.950000000000001,0)" xlink:href="#as"/><use transform="matrix(0.05,0,0,0.05,22.950000000000003,0)" xlink:href="#at"/><use transform="matrix(0.05,0,0,0.05,32.95,0)" xlink:href="#au"/><use transform="matrix(0.05,0,0,0.05,42.95,0)" xlink:href="#av"/><use transform="matrix(0.05,0,0,0.05,53.900000000000006,0)" xlink:href="#aw"/></g><path d="M110-194c64 0 96 36 96 99 0 64-35 99-97 99-61 0-95-36-95-99 0-62 34-99 96-99zm-1 164c35 0 45-28 45-65 0-40-10-65-43-65-34 0-45 26-45 65 0 36 10 65 43 65" id="ax"/><path d="M135-150c-39-12-60 13-60 57V0H25l-1-190h47c2 13-1 29 3 40 6-28 27-53 61-41v41" id="ay"/><path d="M88-194c31-1 46 15 58 34l-1-101h50l1 261h-48c-2-10 0-23-3-31C134-8 116 4 84 4 32 4 16-41 15-95c0-56 19-97 73-99zm17 164c33 0 40-30 41-66 1-37-9-64-41-64s-38 30-39 65c0 43 13 65 39 65" id="az"/><path d="M185-48c-13 30-37 53-82 52C43 2 14-33 14-96s30-98 90-98c62 0 83 45 84 108H66c0 31 8 55 39 56 18 0 30-7 34-22zm-45-69c5-46-57-63-70-21-2 6-4 13-4 21h74" id="aA"/><g id="g"><use transform="matrix(0.05,0,0,0.05,0,0)" xlink:href="#ax"/><use transform="matrix(0.05,0,0,0.05,10.950000000000001,0)" xlink:href="#ay"/><use transform="matrix(0.05,0,0,0.05,17.950000000000003,0)" xlink:href="#az"/><use transform="matrix(0.05,0,0,0.05,28.900000000000006,0)" xlink:href="#aA"/><use transform="matrix(0.05,0,0,0.05,38.900000000000006,0)" xlink:href="#ay"/></g><path d="M115-3C79 11 28 4 28-45v-112H4v-33h27l15-45h31v45h36v33H77v99c-1 23 16 31 38 25v30" id="aB"/><path d="M25-224v-37h50v37H25zM25 0v-190h50V0H25" id="aC"/><path d="M135-194c87-1 58 113 63 194h-50c-7-57 23-157-34-157-59 0-34 97-39 157H25l-1-190h47c2 12-1 28 3 38 12-26 28-41 61-42" id="aD"/><g id="h"><use transform="matrix(0.05,0,0,0.05,0,0)" xlink:href="#at"/><use transform="matrix(0.05,0,0,0.05,10,0)" xlink:href="#ay"/><use transform="matrix(0.05,0,0,0.05,17,0)" xlink:href="#aA"/><use transform="matrix(0.05,0,0,0.05,27,0)" xlink:href="#as"/><use transform="matrix(0.05,0,0,0.05,37,0)" xlink:href="#aB"/><use transform="matrix(0.05,0,0,0.05,42.95,0)" xlink:href="#aC"/><use transform="matrix(0.05,0,0,0.05,47.95,0)" xlink:href="#ax"/><use transform="matrix(0.05,0,0,0.05,58.900000000000006,0)" xlink:href="#aD"/></g><path d="M199 0l-22-63H83L61 0H9l90-248h61L250 0h-51zm-33-102l-36-108c-10 38-24 72-36 108h72" id="aE"/><path d="M25 0v-261h50V0H25" id="aF"/><path d="M12 0v-35l95-120H19v-35h142v35L67-36h103V0H12" id="aG"/><path d="M220-157c-53 9-28 100-34 157h-49v-107c1-27-5-49-29-50C55-147 81-57 75 0H25l-1-190h47c2 12-1 28 3 38 10-53 101-56 108 0 13-22 24-43 59-42 82 1 51 116 57 194h-49v-107c-1-25-5-48-29-50" id="aH"/><g id="i"><use transform="matrix(0.05,0,0,0.05,0,0)" xlink:href="#aE"/><use transform="matrix(0.05,0,0,0.05,12.950000000000001,0)" xlink:href="#aw"/><use transform="matrix(0.05,0,0,0.05,23.900000000000002,0)" xlink:href="#aF"/><use transform="matrix(0.05,0,0,0.05,28.900000000000002,0)" xlink:href="#as"/><use transform="matrix(0.05,0,0,0.05,38.900000000000006,0)" xlink:href="#aG"/><use transform="matrix(0.05,0,0,0.05,47.900000000000006,0)" xlink:href="#as"/><use transform="matrix(0.05,0,0,0.05,57.900000000000006,0)" xlink:href="#aH"/><use transform="matrix(0.05,0,0,0.05,73.9,0)" xlink:href="#aA"/></g><path d="M121-226c-27-7-43 5-38 36h38v33H83V0H34v-157H6v-33h28c-9-59 32-81 87-68v32" id="aI"/><path d="M137-138c1-29-70-34-71-4 15 46 118 7 119 86 1 83-164 76-172 9l43-7c4 19 20 25 44 25 33 8 57-30 24-41C81-84 22-81 20-136c-2-80 154-74 161-7" id="aJ"/><g id="j"><use transform="matrix(0.05,0,0,0.05,0,0)" xlink:href="#at"/><use transform="matrix(0.05,0,0,0.05,10,0)" xlink:href="#ax"/><use transform="matrix(0.05,0,0,0.05,20.950000000000003,0)" xlink:href="#aD"/><use transform="matrix(0.05,0,0,0.05,31.900000000000006,0)" xlink:href="#aI"/><use transform="matrix(0.05,0,0,0.05,37.85000000000001,0)" xlink:href="#aC"/><use transform="matrix(0.05,0,0,0.05,42.85000000000001,0)" xlink:href="#ay"/><use transform="matrix(0.05,0,0,0.05,49.85000000000001,0)" xlink:href="#aH"/><use transform="matrix(0.05,0,0,0.05,65.85000000000001,0)" xlink:href="#aJ"/></g><g id="k"><use transform="matrix(0.05,0,0,0.05,0,0)" xlink:href="#ax"/><use transform="matrix(0.05,0,0,0.05,10.950000000000001,0)" xlink:href="#ay"/><use transform="matrix(0.05,0,0,0.05,17.950000000000003,0)" xlink:href="#az"/><use transform="matrix(0.05,0,0,0.05,28.900000000000006,0)" xlink:href="#aA"/><use transform="matrix(0.05,0,0,0.05,38.900000000000006,0)" xlink:href="#ay"/></g><path d="M175 0L67-191c6 58 2 128 3 191H24v-248h59L193-55c-6-58-2-129-3-193h46V0h-61" id="aK"/><g id="l"><use transform="matrix(0.05,0,0,0.05,0,0)" xlink:href="#aK"/><use transform="matrix(0.05,0,0,0.05,12.950000000000001,0)" xlink:href="#ax"/></g><g id="m"><use transform="matrix(0.05,0,0,0.05,0,0)" xlink:href="#as"/><use transform="matrix(0.05,0,0,0.05,10,0)" xlink:href="#at"/><use transform="matrix(0.05,0,0,0.05,20,0)" xlink:href="#aB"/><use transform="matrix(0.05,0,0,0.05,25.950000000000003,0)" xlink:href="#aC"/><use transform="matrix(0.05,0,0,0.05,30.950000000000003,0)" xlink:href="#ax"/><use transform="matrix(0.05,0,0,0.05,41.9,0)" xlink:href="#aD"/></g><path d="M84 4C32 4 15-41 15-95c0-55 18-99 73-99 29 0 47 12 58 34l2-30h48l-1 265h-49V-32C136-9 114 4 84 4zm21-34c32 0 41-29 41-66 0-36-9-64-40-64-33 0-39 30-40 65 0 43 13 65 39 65" id="aL"/><g id="n"><use transform="matrix(0.05,0,0,0.05,0,0)" xlink:href="#ay"/><use transform="matrix(0.05,0,0,0.05,7,0)" xlink:href="#aA"/><use transform="matrix(0.05,0,0,0.05,17,0)" xlink:href="#aL"/><use transform="matrix(0.05,0,0,0.05,27.950000000000003,0)" xlink:href="#av"/><use transform="matrix(0.05,0,0,0.05,38.900000000000006,0)" xlink:href="#aC"/><use transform="matrix(0.05,0,0,0.05,43.900000000000006,0)" xlink:href="#ay"/><use transform="matrix(0.05,0,0,0.05,50.900000000000006,0)" xlink:href="#aA"/><use transform="matrix(0.05,0,0,0.05,60.900000000000006,0)" xlink:href="#az"/></g><path fill="#333a3e" d="M137-1493h203v612h553v-612h203V0H893v-711H340V0H137v-1493" id="aM"/><path fill="#333a3e" d="M47-1493h1139v170H719V0H516v-1323H47v-170" id="aN"/><path fill="#333a3e" d="M930-1047c0-180-114-280-297-280H399v561h234c182 2 297-102 297-281zm211 0c0 308-189 448-508 447H399V0H197v-1493h436c317-2 508 140 508 446" id="aO"/><path fill="#333a3e" d="M1233 403v80H0v-80h1233" id="aP"/><path fill="#333a3e" d="M563-1520c272-5 493 161 486 422-5 184-82 278-189 404-156 183-266 291-487 524h686V0H152v-170c181-191 381-399 520-561 68-80 112-147 135-197s35-102 35-155c2-166-108-271-275-267-164 4-280 61-403 133v-204c119-56 242-96 399-99" id="aQ"/><path fill="#333a3e" d="M614-616c-74 0-131-59-131-134 0-70 61-135 131-135 72 0 136 64 136 135 0 73-63 134-136 134zm2-744c-94 0-159 53-210 152-88 171-88 754 0 925 51 99 116 152 210 152 95 0 161-53 212-152 88-172 88-754 0-925-51-99-117-152-212-152zm0-160c159 0 280 65 362 196s122 324 122 579-40 447-122 578S775 29 616 29 336-36 255-167 133-490 133-745s41-448 122-579 202-196 361-196" id="aR"/><path fill="#333a3e" d="M838-276c84-151 84-788 0-939-51-91-119-141-222-141-102 0-169 50-220 141-84 151-84 788 0 939 51 91 118 141 220 141 103 0 171-50 222-141zm278-469c0 260-42 454-124 582S785 29 616 29 322-35 240-162 117-484 117-745s41-455 123-583 208-192 376-192c169 0 294 64 376 192s124 322 124 583" id="aS"/><path fill="#333a3e" d="M137-1493h203v664l631-664h237L627-883 1225 0H981L494-748 340-584V0H137v-1493" id="aT"/><g id="o"><use transform="matrix(0.008680555555555556,0,0,0.008680555555555556,0,0)" xlink:href="#aM"/><use transform="matrix(0.008680555555555556,0,0,0.008680555555555556,10.703125,0)" xlink:href="#aN"/><use transform="matrix(0.008680555555555556,0,0,0.008680555555555556,21.40625,0)" xlink:href="#aN"/><use transform="matrix(0.008680555555555556,0,0,0.008680555555555556,32.109375,0)" xlink:href="#aO"/><use transform="matrix(0.008680555555555556,0,0,0.008680555555555556,42.8125,0)" xlink:href="#aP"/><use transform="matrix(0.008680555555555556,0,0,0.008680555555555556,53.515625,0)" xlink:href="#aQ"/><use transform="matrix(0.008680555555555556,0,0,0.008680555555555556,64.21875,0)" xlink:href="#aR"/><use transform="matrix(0.008680555555555556,0,0,0.008680555555555556,74.921875,0)" xlink:href="#aR"/><use transform="matrix(0.008680555555555556,0,0,0.008680555555555556,85.625,0)" xlink:href="#aP"/><use transform="matrix(0.008680555555555556,0,0,0.008680555555555556,96.328125,0)" xlink:href="#aS"/><use transform="matrix(0.008680555555555556,0,0,0.008680555555555556,107.03125,0)" xlink:href="#aT"/></g><path fill="#333a3e" d="M717-39c6 195 31 223 225 229h70v144h-64c-326-9-410-53-418-369v-239c4-224-82-275-309-267v-143h62c196-4 247-65 247-264v-240c8-316 92-359 418-368h64v143h-70c-193 6-225 35-225 229v248c-2 202-44 284-201 324 157 42 201 122 201 325v248" id="aU"/><use transform="matrix(0.008680555555555556,0,0,0.008680555555555556,0,0)" xlink:href="#aU" id="p"/><path fill="#333a3e" d="M895-1493v555H721v-555h174zm-383 0v555H338v-555h174" id="aV"/><path fill="#333a3e" d="M637-1147c132 1 237 25 336 66v180c-92-53-190-92-322-92-145 0-248 35-248 164 0 50 15 87 46 112 23 30 197 67 303 86 166 30 278 123 278 307 0 239-191 356-446 353-140-2-251-31-371-70v-190c114 58 228 103 375 106 145 3 253-56 256-188 3-87-90-149-253-179-210-38-374-93-374-319 0-232 173-338 420-336" id="aW"/><path fill="#333a3e" d="M807 0C529-4 430-92 430-369v-608H131v-143h299v-318h184v318h418v143H614v608c2 165 49 222 211 222h207V0H807" id="aX"/><path fill="#333a3e" d="M547-125c229-2 340-186 327-438H641c-189 0-321 55-324 225-3 137 91 215 230 213zm-332-944c167-71 431-115 615-37 106 45 186 120 213 246 11 49 16 123 16 221V0H874v-166C800-42 695 26 508 29c-220 3-378-138-375-355 4-274 199-382 494-381h247c6-204-80-285-282-284-149 1-272 46-377 106v-184" id="aY"/><path fill="#333a3e" d="M535 29c-255 0-340-177-340-453v-694h184v694c1 183 52 293 219 293 191 0 268-148 268-354v-633h185V0H866v-168C807-50 701 29 535 29" id="aZ"/><path fill="#333a3e" d="M489-1063h252v303H489v-303zm0 758h252V0H489v-305" id="ba"/><g id="q"><use transform="matrix(0.008680555555555556,0,0,0.008680555555555556,0,0)" xlink:href="#aV"/><use transform="matrix(0.008680555555555556,0,0,0.008680555555555556,10.703125,0)" xlink:href="#aW"/><use transform="matrix(0.008680555555555556,0,0,0.008680555555555556,21.40625,0)" xlink:href="#aX"/><use transform="matrix(0.008680555555555556,0,0,0.008680555555555556,32.109375,0)" xlink:href="#aY"/><use transform="matrix(0.008680555555555556,0,0,0.008680555555555556,42.8125,0)" xlink:href="#aX"/><use transform="matrix(0.008680555555555556,0,0,0.008680555555555556,53.515625,0)" xlink:href="#aZ"/><use transform="matrix(0.008680555555555556,0,0,0.008680555555555556,64.21875,0)" xlink:href="#aW"/><use transform="matrix(0.008680555555555556,0,0,0.008680555555555556,74.921875,0)" xlink:href="#aV"/><use transform="matrix(0.008680555555555556,0,0,0.008680555555555556,85.625,0)" xlink:href="#ba"/></g><path fill="#333a3e" d="M616-991c-93 0-161 39-212 109-92 126-92 520 0 646 52 70 119 109 212 109 94 0 161-39 213-109 93-126 92-520 0-646-52-70-119-109-213-109zM137-559c0-353 146-588 479-588s480 235 480 588c0 355-145 588-480 588-334 0-479-234-479-588" id="bb"/><path fill="#333a3e" d="M236-1556h190v901l483-465h224L692-698 1202 0H977L563-578 426-449V0H236v-1556" id="bc"/><g id="r"><use transform="matrix(0.008680555555555556,0,0,0.008680555555555556,0,0)" xlink:href="#aV"/><use transform="matrix(0.008680555555555556,0,0,0.008680555555555556,10.703125,0)" xlink:href="#bb"/><use transform="matrix(0.008680555555555556,0,0,0.008680555555555556,21.40625,0)" xlink:href="#bc"/><use transform="matrix(0.008680555555555556,0,0,0.008680555555555556,32.109375,0)" xlink:href="#aV"/></g><path fill="#333a3e" d="M700-35c-8 316-91 360-417 369h-62V190h68c194-6 227-35 227-229v-248c2-203 44-283 201-325-157-40-201-122-201-324v-248c-6-194-33-223-227-229h-68v-143h62c326 9 409 52 417 368v240c-5 225 84 272 312 264v143h-64c-196 4-248 67-248 267v239" id="bd"/><use transform="matrix(0.008680555555555556,0,0,0.008680555555555556,0,0)" xlink:href="#bd" id="s"/><path fill="#333a3e" d="M1094-1034c0 310-213 470-541 465H362V0H176v-1462h404c343 0 514 143 514 428zM532-727c244-1 369-71 369-297 0-186-113-279-338-279H362v576h170" id="be"/><path fill="#333a3e" d="M616 20C261 20 84-232 84-735c0-500 178-750 534-750 171 0 301 65 392 195s137 316 137 557-46 426-138 557S786 20 616 20zm0-163c115 0 195-51 254-145 102-163 102-730-2-890-59-92-137-143-250-143-225 0-337 196-337 588 0 393 112 590 335 590" id="bf"/><path fill="#333a3e" d="M1087-391c0 281-226 411-532 411-177 0-315-23-414-69v-178c141 57 279 86 414 86 233 0 350-80 350-240 0-69-24-123-71-160s-142-82-285-133c-139-49-239-106-299-174s-90-156-90-264c2-252 211-371 481-371 153 0 291 26 416 78l-64 164c-129-52-249-78-360-78-195 0-293 70-293 209 0 68 22 123 66 164s134 85 270 133c164 58 273 119 328 181s83 143 83 241" id="bg"/><path fill="#333a3e" d="M707 0H520v-1298H102v-164h1022v164H707V0" id="bh"/><g id="t"><use transform="matrix(0.008680555555555556,0,0,0.008680555555555556,0,0)" xlink:href="#be"/><use transform="matrix(0.008680555555555556,0,0,0.008680555555555556,10.668402777777779,0)" xlink:href="#bf"/><use transform="matrix(0.008680555555555556,0,0,0.008680555555555556,21.336805555555557,0)" xlink:href="#bg"/><use transform="matrix(0.008680555555555556,0,0,0.008680555555555556,32.005208333333336,0)" xlink:href="#bh"/></g><path fill="#267bbd" d="M887 0v-707c0-173-79-260-238-260-205 0-307 133-307 398V0H160v-1098h147l27 148h10c69-112 181-168 336-168 259 0 389 134 389 401V0H887" id="bi"/><path fill="#267bbd" d="M1112-551c0 331-186 571-502 571-301 0-495-251-495-571 0-330 184-567 501-567 302 0 496 249 496 567zM614-131c207 0 310-140 310-420 0-277-104-416-312-416-206 0-309 139-309 416 0 280 104 420 311 420" id="bj"/><path fill="#267bbd" d="M1020-150v138C933 9 849 20 768 20 527 20 406-95 406-324v-637H139v-94l267-49 77-287h105v293h438v137H588v637c0 130 64 195 192 195 62 0 142-7 240-21" id="bk"/><path fill="#267bbd" d="M739-1436c0 71-43 115-106 115-71 0-107-38-107-115 0-76 36-114 107-114s106 38 106 114zM541-954l-269-21v-123h451v955l352 20V0H197v-123l344-20v-811" id="bl"/><path fill="#267bbd" d="M866-1417c-164 2-207 56-211 215v104h389v137H655V0H473v-961H156v-110l317-33c-17-319 78-463 389-463 86 0 170 12 252 35l-41 143c-69-19-138-28-207-28" id="bm"/><path fill="#267bbd" d="M172-543c0-365 197-575 553-575 119 0 231 20 336 59l-62 158c-100-38-189-57-268-57-247 0-371 138-371 413 0 271 120 406 361 406 105 0 212-21 321-62v160C953 0 843 20 713 20c-347 1-541-210-541-563" id="bn"/><path fill="#267bbd" d="M596-1118c288 2 430 92 430 366V0H895l-37-152h-8C752-34 680 17 483 20 272 23 135-98 135-307c0-221 170-337 510-348l203-7c15-197-55-305-244-305-98 0-207 27-328 82l-63-137c131-64 258-96 383-96zm-72 991c194 0 325-116 322-311v-99c-251 15-522-6-522 232 0 119 67 178 200 178" id="bo"/><path fill="#267bbd" d="M1243 324H-16V184h1259v140" id="bp"/><path fill="#267bbd" d="M578-131c239 0 309-137 309-397v-570h182V0H922l-27-147h-10C815-36 704 20 551 20c-261 0-391-134-391-401v-717h182v707c0 173 79 260 236 260" id="bq"/><path fill="#267bbd" d="M442-897c93-139 173-221 377-221 79 0 159 15 240 45l-49 166c-82-30-157-45-224-45-221 0-340 134-340 360V0H264v-1098h148l22 201h8" id="br"/><path fill="#267bbd" d="M532-1413l-268-21v-122h451v1413l352 20V0H188v-123l344-20v-1270" id="bs"/><g id="u"><use transform="matrix(0.008680555555555556,0,0,0.008680555555555556,0,0)" xlink:href="#bi"/><use transform="matrix(0.008680555555555556,0,0,0.008680555555555556,10.668402777777779,0)" xlink:href="#bj"/><use transform="matrix(0.008680555555555556,0,0,0.008680555555555556,21.336805555555557,0)" xlink:href="#bk"/><use transform="matrix(0.008680555555555556,0,0,0.008680555555555556,32.005208333333336,0)" xlink:href="#bl"/><use transform="matrix(0.008680555555555556,0,0,0.008680555555555556,42.673611111111114,0)" xlink:href="#bm"/><use transform="matrix(0.008680555555555556,0,0,0.008680555555555556,53.34201388888889,0)" xlink:href="#bl"/><use transform="matrix(0.008680555555555556,0,0,0.008680555555555556,64.01041666666667,0)" xlink:href="#bn"/><use transform="matrix(0.008680555555555556,0,0,0.008680555555555556,74.67881944444446,0)" xlink:href="#bo"/><use transform="matrix(0.008680555555555556,0,0,0.008680555555555556,85.34722222222223,0)" xlink:href="#bk"/><use transform="matrix(0.008680555555555556,0,0,0.008680555555555556,96.015625,0)" xlink:href="#bl"/><use transform="matrix(0.008680555555555556,0,0,0.008680555555555556,106.68402777777777,0)" xlink:href="#bj"/><use transform="matrix(0.008680555555555556,0,0,0.008680555555555556,117.35243055555554,0)" xlink:href="#bi"/><use transform="matrix(0.008680555555555556,0,0,0.008680555555555556,128.02083333333331,0)" xlink:href="#bp"/><use transform="matrix(0.008680555555555556,0,0,0.008680555555555556,138.6892361111111,0)" xlink:href="#bq"/><use transform="matrix(0.008680555555555556,0,0,0.008680555555555556,149.35763888888886,0)" xlink:href="#br"/><use transform="matrix(0.008680555555555556,0,0,0.008680555555555556,160.02604166666663,0)" xlink:href="#bs"/></g><path fill="#333a3e" d="M285-465v-168h659v168H285" id="bt"/><path fill="#333a3e" d="M152-381l714-342-714-342v-160l923 451v102L152-221v-160" id="bu"/><g id="v"><use transform="matrix(0.008680555555555556,0,0,0.008680555555555556,0,0)" xlink:href="#bt"/><use transform="matrix(0.008680555555555556,0,0,0.008680555555555556,10.668402777777779,0)" xlink:href="#bu"/></g><path fill="#333a3e" d="M442-897c93-139 173-221 377-221 79 0 159 15 240 45l-49 166c-82-30-157-45-224-45-221 0-340 134-340 360V0H264v-1098h148l22 201h8" id="bv"/><path fill="#333a3e" d="M739-1436c0 71-43 115-106 115-71 0-107-38-107-115 0-76 36-114 107-114s106 38 106 114zM541-954l-269-21v-123h451v955l352 20V0H197v-123l344-20v-811" id="bw"/><path fill="#333a3e" d="M498 0L82-1098h188l240 652c57 154 90 262 100 325h6c67-256 244-708 340-977h189L729 0H498" id="bx"/><path fill="#333a3e" d="M596-1118c288 2 430 92 430 366V0H895l-37-152h-8C752-34 680 17 483 20 272 23 135-98 135-307c0-221 170-337 510-348l203-7c15-197-55-305-244-305-98 0-207 27-328 82l-63-137c131-64 258-96 383-96zm-72 991c194 0 325-116 322-311v-99c-251 15-522-6-522 232 0 119 67 178 200 178" id="by"/><path fill="#333a3e" d="M1020-150v138C933 9 849 20 768 20 527 20 406-95 406-324v-637H139v-94l267-49 77-287h105v293h438v137H588v637c0 130 64 195 192 195 62 0 142-7 240-21" id="bz"/><path fill="#333a3e" d="M631-1118c283 0 470 204 465 491v113H322c5 250 120 375 344 375 130 0 253-25 370-76v160C925-5 804 20 672 20c-329 0-539-224-539-561 0-331 182-577 498-577zM326-662h573c0-203-91-305-272-305-183 0-284 102-301 305" id="bA"/><g id="w"><use transform="matrix(0.008680555555555556,0,0,0.008680555555555556,0,0)" xlink:href="#be"/><use transform="matrix(0.008680555555555556,0,0,0.008680555555555556,10.668402777777779,0)" xlink:href="#bv"/><use transform="matrix(0.008680555555555556,0,0,0.008680555555555556,21.336805555555557,0)" xlink:href="#bw"/><use transform="matrix(0.008680555555555556,0,0,0.008680555555555556,32.005208333333336,0)" xlink:href="#bx"/><use transform="matrix(0.008680555555555556,0,0,0.008680555555555556,42.673611111111114,0)" xlink:href="#by"/><use transform="matrix(0.008680555555555556,0,0,0.008680555555555556,53.34201388888889,0)" xlink:href="#bz"/><use transform="matrix(0.008680555555555556,0,0,0.008680555555555556,64.01041666666667,0)" xlink:href="#bA"/></g><path fill="#333a3e" d="M1004 0L860-453H369L223 0H33l483-1468h195L1196 0h-192zM807-618c-63-210-144-435-195-650-51 232-127 431-190 650h385" id="bB"/><path fill="#333a3e" d="M1001 0H225v-123l295-20v-1176l-295-20v-123h776v123l-294 20v1176l294 20V0" id="bC"/><g id="x"><use transform="matrix(0.008680555555555556,0,0,0.008680555555555556,0,0)" xlink:href="#bB"/><use transform="matrix(0.008680555555555556,0,0,0.008680555555555556,10.668402777777779,0)" xlink:href="#be"/><use transform="matrix(0.008680555555555556,0,0,0.008680555555555556,21.336805555555557,0)" xlink:href="#bC"/></g><path fill="#333a3e" d="M383-553l135-152 395-393h222L641-623 1163 0H950L524-504l-129 82V0H215v-1556h180c-3 337 9 689-16 1003h4" id="bD"/><path fill="#333a3e" d="M82-1098h188l262 654c55 137 84 233 89 290h6c15-75 45-172 90-292l239-652h189L670 143c-45 116-99 201-156 261-87 92-259 104-414 71V330c92 17 226 18 286-29 67-53 115-195 153-291" id="bE"/><g id="y"><use transform="matrix(0.008680555555555556,0,0,0.008680555555555556,0,0)" xlink:href="#bD"/><use transform="matrix(0.008680555555555556,0,0,0.008680555555555556,10.668402777777779,0)" xlink:href="#bA"/><use transform="matrix(0.008680555555555556,0,0,0.008680555555555556,21.336805555555557,0)" xlink:href="#bE"/></g><path fill="#333a3e" d="M1075-221L152-672v-102l923-451v160L360-723l715 342v160" id="bF"/><g id="z"><use transform="matrix(0.008680555555555556,0,0,0.008680555555555556,0,0)" xlink:href="#bF"/><use transform="matrix(0.008680555555555556,0,0,0.008680555555555556,10.668402777777779,0)" xlink:href="#bt"/></g><path fill="#333a3e" d="M745 16c10 136 94 152 256 158v150c-292-4-438-102-438-293v-334c0-126-113-189-338-189v-155c225 0 338-63 338-189v-333c0-191 146-289 438-293v149c-96 1-163 14-200 39s-56 65-56 119v332c0 138-78 221-233 248v12c155 27 233 110 233 248V16" id="bG"/><use transform="matrix(0.008680555555555556,0,0,0.008680555555555556,0,0)" xlink:href="#bG" id="A"/><path fill="#333a3e" d="M522-1462l-41 528H326l-41-528h237zm422 0l-41 528H748l-41-528h237" id="bH"/><path fill="#333a3e" d="M1026-301c0 225-197 321-448 321-165 0-290-23-375-69v-166c129 57 252 86 370 86 183 0 275-54 275-162 0-38-16-71-49-99s-108-63-226-106c-156-57-253-112-293-160s-61-105-61-171c2-338 524-340 789-217l-60 149c-121-48-228-72-319-72-157 0-236 44-236 133 0 41 17 74 51 98s111 57 232 101c141 51 234 101 280 151s70 111 70 183" id="bI"/><path fill="#333a3e" d="M578-131c239 0 309-137 309-397v-570h182V0H922l-27-147h-10C815-36 704 20 551 20c-261 0-391-134-391-401v-717h182v707c0 173 79 260 236 260" id="bJ"/><path fill="#333a3e" d="M614-1126c85 0 127 46 127 139s-42 139-127 139-127-46-127-139 42-139 127-139zm0 876c85 0 127 46 127 139S699 29 614 29 487-18 487-111s42-139 127-139" id="bK"/><g id="C"><use transform="matrix(0.008680555555555556,0,0,0.008680555555555556,0,0)" xlink:href="#bH"/><use transform="matrix(0.008680555555555556,0,0,0.008680555555555556,10.668402777777779,0)" xlink:href="#bI"/><use transform="matrix(0.008680555555555556,0,0,0.008680555555555556,21.336805555555557,0)" xlink:href="#bz"/><use transform="matrix(0.008680555555555556,0,0,0.008680555555555556,32.005208333333336,0)" xlink:href="#by"/><use transform="matrix(0.008680555555555556,0,0,0.008680555555555556,42.673611111111114,0)" xlink:href="#bz"/><use transform="matrix(0.008680555555555556,0,0,0.008680555555555556,53.34201388888889,0)" xlink:href="#bJ"/><use transform="matrix(0.008680555555555556,0,0,0.008680555555555556,64.01041666666667,0)" xlink:href="#bI"/><use transform="matrix(0.008680555555555556,0,0,0.008680555555555556,74.67881944444446,0)" xlink:href="#bH"/><use transform="matrix(0.008680555555555556,0,0,0.008680555555555556,85.34722222222223,0)" xlink:href="#bK"/></g><path fill="#333a3e" d="M1112-551c0 331-186 571-502 571-301 0-495-251-495-571 0-330 184-567 501-567 302 0 496 249 496 567zM614-131c207 0 310-140 310-420 0-277-104-416-312-416-206 0-309 139-309 416 0 280 104 420 311 420" id="bL"/><path fill="#333a3e" d="M770-262l16 24C748-89 683 87 592 289H440c51-215 88-399 111-551h219" id="bM"/><g id="D"><use transform="matrix(0.008680555555555556,0,0,0.008680555555555556,0,0)" xlink:href="#bH"/><use transform="matrix(0.008680555555555556,0,0,0.008680555555555556,10.668402777777779,0)" xlink:href="#bL"/><use transform="matrix(0.008680555555555556,0,0,0.008680555555555556,21.336805555555557,0)" xlink:href="#bD"/><use transform="matrix(0.008680555555555556,0,0,0.008680555555555556,32.005208333333336,0)" xlink:href="#bH"/><use transform="matrix(0.008680555555555556,0,0,0.008680555555555556,42.673611111111114,0)" xlink:href="#bM"/></g><path fill="#333a3e" d="M1243 324H-16V184h1259v140" id="bN"/><path fill="#333a3e" d="M887 0v-707c0-173-79-260-238-260-205 0-307 133-307 398V0H160v-1098h147l27 148h10c69-112 181-168 336-168 259 0 389 134 389 401V0H887" id="bO"/><g id="E"><use transform="matrix(0.008680555555555556,0,0,0.008680555555555556,0,0)" xlink:href="#bH"/><use transform="matrix(0.008680555555555556,0,0,0.008680555555555556,10.668402777777779,0)" xlink:href="#bI"/><use transform="matrix(0.008680555555555556,0,0,0.008680555555555556,21.336805555555557,0)" xlink:href="#bz"/><use transform="matrix(0.008680555555555556,0,0,0.008680555555555556,32.005208333333336,0)" xlink:href="#by"/><use transform="matrix(0.008680555555555556,0,0,0.008680555555555556,42.673611111111114,0)" xlink:href="#bz"/><use transform="matrix(0.008680555555555556,0,0,0.008680555555555556,53.34201388888889,0)" xlink:href="#bJ"/><use transform="matrix(0.008680555555555556,0,0,0.008680555555555556,64.01041666666667,0)" xlink:href="#bI"/><use transform="matrix(0.008680555555555556,0,0,0.008680555555555556,74.67881944444446,0)" xlink:href="#bN"/><use transform="matrix(0.008680555555555556,0,0,0.008680555555555556,85.34722222222223,0)" xlink:href="#bv"/><use transform="matrix(0.008680555555555556,0,0,0.008680555555555556,96.015625,0)" xlink:href="#bA"/><use transform="matrix(0.008680555555555556,0,0,0.008680555555555556,106.68402777777777,0)" xlink:href="#by"/><use transform="matrix(0.008680555555555556,0,0,0.008680555555555556,117.35243055555554,0)" xlink:href="#bI"/><use transform="matrix(0.008680555555555556,0,0,0.008680555555555556,128.02083333333331,0)" xlink:href="#bL"/><use transform="matrix(0.008680555555555556,0,0,0.008680555555555556,138.6892361111111,0)" xlink:href="#bO"/><use transform="matrix(0.008680555555555556,0,0,0.008680555555555556,149.35763888888886,0)" xlink:href="#bH"/><use transform="matrix(0.008680555555555556,0,0,0.008680555555555556,160.02604166666663,0)" xlink:href="#bK"/></g><g id="F"><use transform="matrix(0.008680555555555556,0,0,0.008680555555555556,0,0)" xlink:href="#bH"/><use transform="matrix(0.008680555555555556,0,0,0.008680555555555556,10.668402777777779,0)" xlink:href="#bH"/></g><path fill="#333a3e" d="M227 174c161-4 256-22 256-158v-331c0-138 78-221 234-248v-12c-156-27-234-110-234-248v-332c-9-135-95-154-256-158v-149c293 4 439 102 439 293v333c0 126 113 189 338 189v155c-225 0-338 63-338 189V31c0 191-146 289-439 293V174" id="bP"/><use transform="matrix(0.008680555555555556,0,0,0.008680555555555556,0,0)" xlink:href="#bP" id="G"/><path fill="#333a3e" d="M631-1520c144 2 262 34 381 78v205c-106-67-218-116-371-119-174-3-308 84-309 246 0 66 20 114 54 151 44 48 204 86 310 111 250 58 402 161 402 440 0 301-201 439-516 437-164-1-298-37-424-90v-215c130 81 244 137 424 141 187 4 323-84 323-260 0-181-93-224-262-262-271-61-502-123-504-422-2-273 211-447 492-441" id="bQ"/><g id="H"><use transform="matrix(0.008680555555555556,0,0,0.008680555555555556,0,0)" xlink:href="#aO"/><use transform="matrix(0.008680555555555556,0,0,0.008680555555555556,10.703125,0)" xlink:href="#aS"/><use transform="matrix(0.008680555555555556,0,0,0.008680555555555556,21.40625,0)" xlink:href="#bQ"/><use transform="matrix(0.008680555555555556,0,0,0.008680555555555556,32.109375,0)" xlink:href="#aN"/></g><path fill="#267bbd" d="M711-1147c253 0 340 178 340 453V0H866v-694c-1-183-51-293-219-293-189 0-268 148-268 354V0H195v-1120h184v168c60-118 165-195 332-195" id="bR"/><path fill="#267bbd" d="M616-991c-93 0-161 39-212 109-92 126-92 520 0 646 52 70 119 109 212 109 94 0 161-39 213-109 93-126 92-520 0-646-52-70-119-109-213-109zM137-559c0-353 146-588 479-588s480 235 480 588c0 355-145 588-480 588-334 0-479-234-479-588" id="bS"/><path fill="#267bbd" d="M807 0C529-4 430-92 430-369v-608H131v-143h299v-318h184v318h418v143H614v608c2 165 49 222 211 222h207V0H807" id="bT"/><path fill="#267bbd" d="M256-1120h471v977h365V0H178v-143h365v-834H256v-143zm287-436h184v233H543v-233" id="bU"/><path fill="#267bbd" d="M494-1120c-16-286 77-439 348-436h221v153H854c-136 2-174 46-176 184v99h385v143H678V0H494v-977H195v-143h299" id="bV"/><path fill="#267bbd" d="M748-127c144 0 233-46 313-121v191C974-6 875 28 748 29c-351 3-553-232-553-588 0-357 202-591 553-588 129 2 222 35 313 86v193c-88-76-165-123-313-123-245 0-359 174-359 432 0 257 115 432 359 432" id="bW"/><path fill="#267bbd" d="M547-125c229-2 340-186 327-438H641c-189 0-321 55-324 225-3 137 91 215 230 213zm-332-944c167-71 431-115 615-37 106 45 186 120 213 246 11 49 16 123 16 221V0H874v-166C800-42 695 26 508 29c-220 3-378-138-375-355 4-274 199-382 494-381h247c6-204-80-285-282-284-149 1-272 46-377 106v-184" id="bX"/><path fill="#267bbd" d="M1233 403v80H0v-80h1233" id="bY"/><path fill="#267bbd" d="M535 29c-255 0-340-177-340-453v-694h184v694c1 183 52 293 219 293 191 0 268-148 268-354v-633h185V0H866v-168C807-50 701 29 535 29" id="bZ"/><path fill="#267bbd" d="M915-1147c102 0 174 26 240 70v188c-71-55-140-88-254-88-243 0-354 165-354 420V0H362v-1120h185v219c55-146 178-246 368-246" id="ca"/><path fill="#267bbd" d="M801 0C570 0 455-164 455-406v-1017H160v-144h479v1161c0 147 46 250 180 250h215V0H801" id="cb"/><g id="I"><use transform="matrix(0.008680555555555556,0,0,0.008680555555555556,0,0)" xlink:href="#bR"/><use transform="matrix(0.008680555555555556,0,0,0.008680555555555556,10.703125,0)" xlink:href="#bS"/><use transform="matrix(0.008680555555555556,0,0,0.008680555555555556,21.40625,0)" xlink:href="#bT"/><use transform="matrix(0.008680555555555556,0,0,0.008680555555555556,32.109375,0)" xlink:href="#bU"/><use transform="matrix(0.008680555555555556,0,0,0.008680555555555556,42.8125,0)" xlink:href="#bV"/><use transform="matrix(0.008680555555555556,0,0,0.008680555555555556,53.515625,0)" xlink:href="#bU"/><use transform="matrix(0.008680555555555556,0,0,0.008680555555555556,64.21875,0)" xlink:href="#bW"/><use transform="matrix(0.008680555555555556,0,0,0.008680555555555556,74.921875,0)" xlink:href="#bX"/><use transform="matrix(0.008680555555555556,0,0,0.008680555555555556,85.625,0)" xlink:href="#bT"/><use transform="matrix(0.008680555555555556,0,0,0.008680555555555556,96.328125,0)" xlink:href="#bU"/><use transform="matrix(0.008680555555555556,0,0,0.008680555555555556,107.03125,0)" xlink:href="#bS"/><use transform="matrix(0.008680555555555556,0,0,0.008680555555555556,117.734375,0)" xlink:href="#bR"/><use transform="matrix(0.008680555555555556,0,0,0.008680555555555556,128.4375,0)" xlink:href="#bY"/><use transform="matrix(0.008680555555555556,0,0,0.008680555555555556,139.140625,0)" xlink:href="#bZ"/><use transform="matrix(0.008680555555555556,0,0,0.008680555555555556,149.84375,0)" xlink:href="#ca"/><use transform="matrix(0.008680555555555556,0,0,0.008680555555555556,160.546875,0)" xlink:href="#cb"/></g><path fill="#333a3e" d="M356-643h521v164H356v-164" id="cc"/><path fill="#333a3e" d="M88-961v-182l1057 418v166L88-141v-183l850-317" id="cd"/><g id="J"><use transform="matrix(0.008680555555555556,0,0,0.008680555555555556,0,0)" xlink:href="#cc"/><use transform="matrix(0.008680555555555556,0,0,0.008680555555555556,10.703125,0)" xlink:href="#cd"/></g><path fill="#333a3e" d="M915-1147c102 0 174 26 240 70v188c-71-55-140-88-254-88-243 0-354 165-354 420V0H362v-1120h185v219c55-146 178-246 368-246" id="ce"/><path fill="#333a3e" d="M256-1120h471v977h365V0H178v-143h365v-834H256v-143zm287-436h184v233H543v-233" id="cf"/><path fill="#333a3e" d="M100-1120h191l325 940 326-940h191L735 0H498" id="cg"/><path fill="#333a3e" d="M651-1147c298 0 466 229 461 541v90H315c-4 242 129 392 365 389 156-2 268-51 389-113v183C949-8 828 27 678 29c-351 3-555-232-555-588 0-338 200-588 528-588zm277 487c-4-201-91-331-285-331-193 0-305 144-321 332" id="ch"/><g id="K"><use transform="matrix(0.008680555555555556,0,0,0.008680555555555556,0,0)" xlink:href="#aO"/><use transform="matrix(0.008680555555555556,0,0,0.008680555555555556,10.703125,0)" xlink:href="#ce"/><use transform="matrix(0.008680555555555556,0,0,0.008680555555555556,21.40625,0)" xlink:href="#cf"/><use transform="matrix(0.008680555555555556,0,0,0.008680555555555556,32.109375,0)" xlink:href="#cg"/><use transform="matrix(0.008680555555555556,0,0,0.008680555555555556,42.8125,0)" xlink:href="#aY"/><use transform="matrix(0.008680555555555556,0,0,0.008680555555555556,53.515625,0)" xlink:href="#aX"/><use transform="matrix(0.008680555555555556,0,0,0.008680555555555556,64.21875,0)" xlink:href="#ch"/></g><path fill="#333a3e" d="M616-1315L403-551h426zm-122-178h245L1196 0H987L877-389H354L246 0H37" id="ci"/><path fill="#333a3e" d="M201-1493h829v170H717v1153h313V0H201v-170h313v-1153H201v-170" id="cj"/><g id="L"><use transform="matrix(0.008680555555555556,0,0,0.008680555555555556,0,0)" xlink:href="#ci"/><use transform="matrix(0.008680555555555556,0,0,0.008680555555555556,10.703125,0)" xlink:href="#aO"/><use transform="matrix(0.008680555555555556,0,0,0.008680555555555556,21.40625,0)" xlink:href="#cj"/></g><path fill="#333a3e" d="M1153-1120C1010-750 884-433 741-52c-66 176-110 283-133 322-55 94-138 156-276 156H184V272c97 0 188 7 236-47 29-33 70-112 117-243L104-1120h195l332 876 327-876h195" id="ck"/><g id="M"><use transform="matrix(0.008680555555555556,0,0,0.008680555555555556,0,0)" xlink:href="#bc"/><use transform="matrix(0.008680555555555556,0,0,0.008680555555555556,10.703125,0)" xlink:href="#ch"/><use transform="matrix(0.008680555555555556,0,0,0.008680555555555556,21.40625,0)" xlink:href="#ck"/></g><path fill="#333a3e" d="M1145-961L295-641l850 317v183L88-559v-166l1057-418v182" id="cl"/><g id="N"><use transform="matrix(0.008680555555555556,0,0,0.008680555555555556,0,0)" xlink:href="#cl"/><use transform="matrix(0.008680555555555556,0,0,0.008680555555555556,10.703125,0)" xlink:href="#cc"/></g><use transform="matrix(0.008680555555555556,0,0,0.008680555555555556,0,0)" xlink:href="#aU" id="O"/><path fill="#333a3e" d="M674 29c-147 0-246-68-299-170v567H190v-1546h185v143c55-101 152-170 299-170 300 0 434 263 434 592 0 325-137 584-434 584zm174-265c87-125 87-521 0-646-48-70-112-109-201-109s-154 38-203 109c-89 127-89 518 0 645 49 71 114 110 203 110s153-39 201-109" id="cm"/><path fill="#333a3e" d="M711-1147c253 0 340 178 340 453V0H866v-694c-1-183-51-293-219-293-189 0-268 148-268 354V0H195v-1120h184v168c60-118 165-195 332-195" id="cn"/><path fill="#333a3e" d="M559-1147c146 0 246 68 299 170v-579h184V0H858v-141C803-40 706 29 559 29c-300 0-436-264-436-592 0-325 139-584 436-584zM385-882c-81 129-87 521 0 646 49 70 112 109 201 109s152-39 202-110c89-127 83-514 0-645-88-139-315-140-403 0" id="co"/><path fill="#333a3e" d="M790-254c87-126 81-501 0-630-88-140-313-134-402 0-86 129-92 505 0 630 51 70 117 109 208 109 85 0 146-39 194-109zm-237-893c158 0 247 65 305 176v-145h184V-72c1 325-152 512-469 512-118-1-228-23-325-55V203c107 49 197 90 325 90 215 0 286-119 285-346v-125C804-62 712 8 553 8 267 8 123-257 123-569c0-313 143-578 430-578" id="cp"/><path fill="#333a3e" d="M502-303h252v207L557 287H403l99-383v-207" id="cq"/><g id="Q"><use transform="matrix(0.008680555555555556,0,0,0.008680555555555556,0,0)" xlink:href="#aV"/><use transform="matrix(0.008680555555555556,0,0,0.008680555555555556,10.703125,0)" xlink:href="#cm"/><use transform="matrix(0.008680555555555556,0,0,0.008680555555555556,21.40625,0)" xlink:href="#ch"/><use transform="matrix(0.008680555555555556,0,0,0.008680555555555556,32.109375,0)" xlink:href="#cn"/><use transform="matrix(0.008680555555555556,0,0,0.008680555555555556,42.8125,0)" xlink:href="#co"/><use transform="matrix(0.008680555555555556,0,0,0.008680555555555556,53.515625,0)" xlink:href="#cf"/><use transform="matrix(0.008680555555555556,0,0,0.008680555555555556,64.21875,0)" xlink:href="#cn"/><use transform="matrix(0.008680555555555556,0,0,0.008680555555555556,74.921875,0)" xlink:href="#cp"/><use transform="matrix(0.008680555555555556,0,0,0.008680555555555556,85.625,0)" xlink:href="#aV"/><use transform="matrix(0.008680555555555556,0,0,0.008680555555555556,96.328125,0)" xlink:href="#cq"/></g><g id="R"><use transform="matrix(0.008680555555555556,0,0,0.008680555555555556,0,0)" xlink:href="#aV"/><use transform="matrix(0.008680555555555556,0,0,0.008680555555555556,10.703125,0)" xlink:href="#aW"/><use transform="matrix(0.008680555555555556,0,0,0.008680555555555556,21.40625,0)" xlink:href="#aX"/><use transform="matrix(0.008680555555555556,0,0,0.008680555555555556,32.109375,0)" xlink:href="#aY"/><use transform="matrix(0.008680555555555556,0,0,0.008680555555555556,42.8125,0)" xlink:href="#aX"/><use transform="matrix(0.008680555555555556,0,0,0.008680555555555556,53.515625,0)" xlink:href="#aZ"/><use transform="matrix(0.008680555555555556,0,0,0.008680555555555556,64.21875,0)" xlink:href="#aW"/><use transform="matrix(0.008680555555555556,0,0,0.008680555555555556,74.921875,0)" xlink:href="#aP"/><use transform="matrix(0.008680555555555556,0,0,0.008680555555555556,85.625,0)" xlink:href="#ce"/><use transform="matrix(0.008680555555555556,0,0,0.008680555555555556,96.328125,0)" xlink:href="#ch"/><use transform="matrix(0.008680555555555556,0,0,0.008680555555555556,107.03125,0)" xlink:href="#aY"/><use transform="matrix(0.008680555555555556,0,0,0.008680555555555556,117.734375,0)" xlink:href="#aW"/><use transform="matrix(0.008680555555555556,0,0,0.008680555555555556,128.4375,0)" xlink:href="#bb"/><use transform="matrix(0.008680555555555556,0,0,0.008680555555555556,139.140625,0)" xlink:href="#cn"/><use transform="matrix(0.008680555555555556,0,0,0.008680555555555556,149.84375,0)" xlink:href="#aV"/><use transform="matrix(0.008680555555555556,0,0,0.008680555555555556,160.546875,0)" xlink:href="#ba"/></g><path fill="#333a3e" d="M748-127c144 0 233-46 313-121v191C974-6 875 28 748 29c-351 3-553-232-553-588 0-357 202-591 553-588 129 2 222 35 313 86v193c-88-76-165-123-313-123-245 0-359 174-359 432 0 257 115 432 359 432" id="cr"/><path fill="#333a3e" d="M494-1120c-16-286 77-439 348-436h221v153H854c-136 2-174 46-176 184v99h385v143H678V0H494v-977H195v-143h299" id="cs"/><path fill="#333a3e" d="M471-1147c112 0 171 55 205 141 41-85 99-141 213-141 90 0 154 35 191 105s55 200 55 393V0H967v-641c0-158-12-256-27-295-31-81-176-72-206 4-17 42-29 138-29 291V0H537v-641c0-160-10-259-29-296s-53-56-102-56-83 20-102 61-28 138-28 291V0H109v-1120h167v96c38-70 97-123 195-123" id="ct"/><path fill="#333a3e" d="M400-878c-80 129-87 521 0 646 48 70 111 109 200 109s153-38 202-109c88-126 81-516 0-646-87-139-315-140-402 0zm171-265c146 0 244 69 299 170v-143h185V430H870v-569C816-38 718 33 571 33c-296 0-434-260-434-584 0-185 39-330 116-435s183-157 318-157" id="cu"/><g id="S"><use transform="matrix(0.008680555555555556,0,0,0.008680555555555556,0,0)" xlink:href="#aV"/><use transform="matrix(0.008680555555555556,0,0,0.008680555555555556,10.703125,0)" xlink:href="#cr"/><use transform="matrix(0.008680555555555556,0,0,0.008680555555555556,21.40625,0)" xlink:href="#bb"/><use transform="matrix(0.008680555555555556,0,0,0.008680555555555556,32.109375,0)" xlink:href="#cn"/><use transform="matrix(0.008680555555555556,0,0,0.008680555555555556,42.8125,0)" xlink:href="#cs"/><use transform="matrix(0.008680555555555556,0,0,0.008680555555555556,53.515625,0)" xlink:href="#cf"/><use transform="matrix(0.008680555555555556,0,0,0.008680555555555556,64.21875,0)" xlink:href="#ce"/><use transform="matrix(0.008680555555555556,0,0,0.008680555555555556,74.921875,0)" xlink:href="#ct"/><use transform="matrix(0.008680555555555556,0,0,0.008680555555555556,85.625,0)" xlink:href="#aY"/><use transform="matrix(0.008680555555555556,0,0,0.008680555555555556,96.328125,0)" xlink:href="#aX"/><use transform="matrix(0.008680555555555556,0,0,0.008680555555555556,107.03125,0)" xlink:href="#cf"/><use transform="matrix(0.008680555555555556,0,0,0.008680555555555556,117.734375,0)" xlink:href="#bb"/><use transform="matrix(0.008680555555555556,0,0,0.008680555555555556,128.4375,0)" xlink:href="#cn"/><use transform="matrix(0.008680555555555556,0,0,0.008680555555555556,139.140625,0)" xlink:href="#aP"/><use transform="matrix(0.008680555555555556,0,0,0.008680555555555556,149.84375,0)" xlink:href="#ce"/><use transform="matrix(0.008680555555555556,0,0,0.008680555555555556,160.546875,0)" xlink:href="#ch"/><use transform="matrix(0.008680555555555556,0,0,0.008680555555555556,171.25,0)" xlink:href="#cu"/><use transform="matrix(0.008680555555555556,0,0,0.008680555555555556,181.953125,0)" xlink:href="#aZ"/><use transform="matrix(0.008680555555555556,0,0,0.008680555555555556,192.65625,0)" xlink:href="#cf"/><use transform="matrix(0.008680555555555556,0,0,0.008680555555555556,203.359375,0)" xlink:href="#ce"/><use transform="matrix(0.008680555555555556,0,0,0.008680555555555556,214.0625,0)" xlink:href="#ch"/><use transform="matrix(0.008680555555555556,0,0,0.008680555555555556,224.765625,0)" xlink:href="#co"/><use transform="matrix(0.008680555555555556,0,0,0.008680555555555556,235.46875,0)" xlink:href="#aV"/></g><use transform="matrix(0.008680555555555556,0,0,0.008680555555555556,0,0)" xlink:href="#bd" id="T"/><path d="M240 0l2-218c-23 76-54 145-80 218h-23L58-218 59 0H30v-248h44l77 211c21-75 51-140 76-211h43V0h-30" id="cv"/><g id="U"><use transform="matrix(0.05,0,0,0.05,0,0)" xlink:href="#cv"/><use transform="matrix(0.05,0,0,0.05,14.950000000000001,0)" xlink:href="#ab"/><use transform="matrix(0.05,0,0,0.05,24.950000000000003,0)" xlink:href="#am"/><use transform="matrix(0.05,0,0,0.05,30.900000000000002,0)" xlink:href="#ad"/><use transform="matrix(0.05,0,0,0.05,39.900000000000006,0)" xlink:href="#ai"/><use transform="matrix(0.05,0,0,0.05,49.900000000000006,0)" xlink:href="#Y"/><use transform="matrix(0.05,0,0,0.05,59.900000000000006,0)" xlink:href="#af"/><use transform="matrix(0.05,0,0,0.05,69.9,0)" xlink:href="#al"/></g></defs></g></svg>